<svg version="1.2" xmlns="http://www.w3.org/2000/svg" viewBox="0 0 500 322" width="500" height="322"><defs><linearGradient id="P" gradientUnits="userSpaceOnUse"/><linearGradient id="g1" x2="1" href="#P" gradientTransform="matrix(34.986,41.785,-41.762,34.967,305.945,109.187)"><stop stop-color="#ffc834"/><stop offset="1" stop-color="#e29534"/></linearGradient><linearGradient id="g2" x2="1" href="#P" gradientTransform="matrix(9.53,24.265,-57.433,22.557,313.255,26.048)"><stop stop-color="#ffc834"/><stop offset="1" stop-color="#e29534"/></linearGradient><linearGradient id="g3" x2="1" href="#P" gradientTransform="matrix(24.907,37.783,-39.626,26.122,368.3,57.763)"><stop stop-color="#ffc834"/><stop offset="1" stop-color="#e29534"/></linearGradient><linearGradient id="g4" x2="1" href="#P" gradientTransform="matrix(35.166,40.679,-40.566,35.068,368.3,109.187)"><stop stop-color="#ffc834"/><stop offset="1" stop-color="#e29534"/></linearGradient><linearGradient id="g5" x2="1" href="#P" gradientTransform="matrix(24.584,38.505,-40.809,26.055,305.945,57.763)"><stop stop-color="#ffc834"/><stop offset="1" stop-color="#e29534"/></linearGradient><linearGradient id="g6" x2="1" href="#P" gradientTransform="matrix(9.04,25.72,-34.556,12.146,368.3,25.437)"><stop stop-color="#ffc834"/><stop offset="1" stop-color="#e29534"/></linearGradient><linearGradient id="g7" x2="1" href="#P" gradientTransform="matrix(163.063,272.297,-287.259,172.023,121.173,50.33)"><stop stop-color="#ffc834"/><stop offset="1" stop-color="#e29534"/></linearGradient><linearGradient id="g8" x2="1" href="#P" gradientTransform="matrix(46.65,46.35,-46.378,46.679,138.185,48.41)"><stop stop-color="#ffc834"/><stop offset="1" stop-color="#e29534"/></linearGradient><linearGradient id="g9" x2="1" href="#P" gradientTransform="matrix(30.856,30.656,-30.675,30.875,217.756,80.421)"><stop stop-color="#ffc834"/><stop offset="1" stop-color="#e29534"/></linearGradient><linearGradient id="g10" x2="1" href="#P" gradientTransform="matrix(94.209,75.147,-91.937,115.258,261.097,171.712)"><stop stop-color="#ffc834"/><stop offset="1" stop-color="#e29534"/></linearGradient><linearGradient id="g11" x2="1" href="#P" gradientTransform="matrix(94.215,75.175,-91.962,115.254,274.432,171.712)"><stop stop-color="#ffc834"/><stop offset="1" stop-color="#e29534"/></linearGradient><linearGradient id="g12" x2="1" href="#P" gradientTransform="matrix(38.176,77.806,-91.49,44.89,331.787,161.817)"><stop stop-color="#ffc834"/><stop offset="1" stop-color="#e29534"/></linearGradient><linearGradient id="g13" x2="1" href="#P" gradientTransform="matrix(11.03,18.906,-47.052,27.451,319.699,173.559)"><stop stop-color="#ffc834"/><stop offset="1" stop-color="#e29534"/></linearGradient><linearGradient id="g14" x2="1" href="#P" gradientTransform="matrix(22.288,19.551,-122.291,139.411,307.951,162.269)"><stop stop-color="#ffc834"/><stop offset="1" stop-color="#e29534"/></linearGradient><linearGradient id="g15" x2="1" href="#P" gradientTransform="matrix(15.699,10.3,-11.984,18.266,275.693,221.325)"><stop stop-color="#ffc834"/><stop offset="1" stop-color="#e29534"/></linearGradient><linearGradient id="g16" x2="1" href="#P" gradientTransform="matrix(16.177,12.994,-21.216,26.413,367.817,181.336)"><stop stop-color="#ffc834"/><stop offset="1" stop-color="#e29534"/></linearGradient><linearGradient id="g17" x2="1" href="#P" gradientTransform="matrix(13.018,11.312,-26.407,30.39,363.943,150.405)"><stop stop-color="#ffc834"/><stop offset="1" stop-color="#e29534"/></linearGradient><linearGradient id="g18" x2="1" href="#P" gradientTransform="matrix(52.269,57.574,-131.22,119.129,287.434,223.914)"><stop stop-color="#ffc834"/><stop offset="1" stop-color="#e29534"/></linearGradient><linearGradient id="g19" x2="1" href="#P" gradientTransform="matrix(95.653,82.951,-98.166,113.198,345.581,171.712)"><stop stop-color="#ffc834"/><stop offset="1" stop-color="#e29534"/></linearGradient><linearGradient id="g20" x2="1" href="#P" gradientTransform="matrix(94.215,75.175,-91.966,115.259,357.332,171.712)"><stop stop-color="#ffc834"/><stop offset="1" stop-color="#e29534"/></linearGradient><linearGradient id="g21" x2="1" href="#P" gradientTransform="matrix(22.288,10.138,-11.659,25.633,388.7,167.351)"><stop stop-color="#ffc834"/><stop offset="1" stop-color="#e29534"/></linearGradient><linearGradient id="g22" x2="1" href="#P" gradientTransform="matrix(1.356,9.891,-59.712,8.186,359.78,203.077)"><stop stop-color="#ffc834"/><stop offset="1" stop-color="#e29534"/></linearGradient><linearGradient id="g23" x2="1" href="#P" gradientTransform="matrix(18.625,17.38,-24.882,26.664,365.996,130.93)"><stop stop-color="#ffc834"/><stop offset="1" stop-color="#e29534"/></linearGradient><linearGradient id="g24" x2="1" href="#P" gradientTransform="matrix(40.936,48.031,-47.939,40.858,192.426,247.562)"><stop stop-color="#ffc834"/><stop offset="1" stop-color="#e29534"/></linearGradient><linearGradient id="g25" x2="1" href="#P" gradientTransform="matrix(.916,9.185,-42.314,4.22,198.466,233.787)"><stop stop-color="#ffc834"/><stop offset="1" stop-color="#e29534"/></linearGradient></defs><style>.a{fill:url(#g1)}.b{fill:url(#g2)}.c{fill:url(#g3)}.d{fill:url(#g4)}.e{fill:url(#g5)}.f{fill:url(#g6)}.g{fill:url(#g7)}.h{fill:url(#g8)}.i{fill:url(#g9)}.j{opacity:.7;fill:#fff}.k{fill:#1f1f1f}.l{fill:url(#g10);stroke:#1f1f1f;stroke-miterlimit:10}.m{fill:url(#g11);stroke:#1f1f1f;stroke-miterlimit:10}.n{fill:url(#g12);stroke:#1f1f1f;stroke-miterlimit:10}.o{fill:none;stroke:#1f1f1f;stroke-miterlimit:10}.p{fill:#fff}.q{fill:url(#g13)}.r{mix-blend-mode:multiply;fill:#1f1f1f}.s{fill:none;stroke:#1f1f1f;stroke-linecap:round;stroke-linejoin:round}.t{fill:#fff;stroke:#1f1f1f;stroke-linecap:round;stroke-linejoin:round}.u{mix-blend-mode:multiply;fill:url(#g14)}.v{fill:#1f1f1f;stroke:#1f1f1f;stroke-miterlimit:10}.w{fill:#fff;stroke:#1f1f1f;stroke-miterlimit:10}.x{fill:url(#g15)}.y{fill:url(#g16)}.z{fill:#1f1f1f;stroke:#1f1f1f;stroke-linecap:round;stroke-linejoin:round}.A{mix-blend-mode:multiply;fill:url(#g17)}.B{fill:none;stroke:#fff;stroke-linecap:round;stroke-linejoin:round;stroke-width:.8}.C{fill:#fff;stroke:#1f1f1f;stroke-miterlimit:10;stroke-width:.5}.D{fill:url(#g18)}.E{fill:url(#g19);stroke:#1f1f1f;stroke-linecap:round;stroke-linejoin:round}.F{fill:url(#g20);stroke:#1f1f1f;stroke-linecap:round;stroke-linejoin:round}.G{opacity:.3;fill:#1f1f1f}.H{mix-blend-mode:multiply;fill:url(#g21)}.I{mix-blend-mode:multiply;fill:url(#g22)}.J{mix-blend-mode:multiply;fill:url(#g23)}.K{fill:none;stroke:#fff;stroke-linecap:round;stroke-linejoin:round}.L{fill:#1f1f1f;stroke:#fff;stroke-linecap:round;stroke-linejoin:round}.M{fill:url(#g24);stroke:#1f1f1f;stroke-linecap:round;stroke-linejoin:round}.N{fill:url(#g25);stroke:#1f1f1f;stroke-linecap:round;stroke-linejoin:round}</style><path class="a" d="m351.6 102h-55.7v56h55.7z"/><path class="b" d="m351.6 45.3v-22.1c-5 0.7-9.9 2.2-14.4 4.6-10.4 5.8-21.2 12.2-32.4 17.5z"/><path class="c" d="m412.5 52.3h-53.9v42.7h53.9z"/><path class="d" d="m412.5 102h-53.9v56h53.9z"/><path class="e" d="m351.6 52.3h-55.7v42.7h55.7z"/><path class="f" d="m358.6 45.3h53.9v-5.9c-17.3-12.3-37.4-17.5-53.9-16.8z"/><path fill-rule="evenodd" class="g" d="m436.7 304.5h-366.4c0 0 10-38 11.4-69.5 1.4-31.5-40.6-84-32.2-137.2 8.4-53.2 57.4-99.4 112.7-80.5 55.3 18.9 72.8 39.2 100.1 39.2 9-0.1 17.8-1.7 26.3-4.6v0.4h0.3v112.7h130.6v-120.1c14.2 12.2 25.7 29.8 30.5 53.6 14 69.3-19.6 144.9-19.6 144.9-7 36.4 6.3 61.1 6.3 61.1zm-242.3-273.2h-73.5v88.9h73.5zm60.6 37.8h-48.7v58.8h48.6z"/><path class="h" d="m188 39h-60.7v73.5h60.7z"/><path class="i" d="m250.7 74.2h-40.2v48.6h40.2z"/><g style="opacity:.7"><path class="j" d="m351.6 102h-55.7v56h55.7z"/><path class="j" d="m351.6 45.3v-22.1c-5 0.7-9.9 2.2-14.4 4.6-10.4 5.8-21.2 12.2-32.4 17.5z"/><path class="j" d="m412.5 52.3h-53.9v42.7h53.9z"/><path class="j" d="m412.5 102h-53.9v56h53.9z"/><path class="j" d="m351.6 52.3h-55.7v42.7h55.7z"/><path class="j" d="m358.6 45.3h53.9v-5.9c-17.3-12.3-37.4-17.5-53.9-16.8z"/><path fill-rule="evenodd" class="j" d="m436.7 304.5h-366.4c0 0 10-38 11.4-69.5 1.4-31.5-40.6-84-32.2-137.2 8.4-53.2 57.4-99.4 112.7-80.5 55.3 18.9 72.8 39.2 100.1 39.2 9-0.1 17.8-1.7 26.3-4.6v0.4h0.3v112.7h130.6v-120.1c14.2 12.2 25.7 29.8 30.5 53.6 14 69.3-19.6 144.9-19.6 144.9-7 36.4 6.3 61.1 6.3 61.1zm-242.3-273.2h-73.5v88.9h73.5zm60.6 37.8h-48.7v58.8h48.6z"/><path class="j" d="m188 39h-60.7v73.5h60.7z"/><path class="j" d="m250.7 74.2h-40.2v48.6h40.2z"/></g><path class="k" d="m262 308.3c113.2 0 205-2.4 205-5.3 0-2.9-91.8-5.3-205-5.3-113.2 0-205 2.4-205 5.3 0 2.9 91.8 5.3 205 5.3z"/><path fill-rule="evenodd" class="k" d="m461.3 253.4c0 0-5.4-4.8-7.7-8-1.6-2.3-2.8-4.4-3.4-5.4-0.3 11.1-1.3 22.2-3.1 33.2q-0.1 0.2-0.2 0.3-0.1 0.1-0.3 0.1h-0.1q-0.2 0-0.3-0.2-0.1-0.2-0.1-0.4 2.1-12.5 2.8-25.1c-0.6 2.4-1.8 4.6-3.5 6.4q0.5-5.3 1.6-10.5c0.2-1.6 1-3 2.2-4.1q0.1-4 0-8.1c-2.5-2.2-5.1-4.7-5.7-5.9q-0.7-1.6-0.9-3.4c2 28.8 1.7 48.3 1.7 48.6q0 0.1-0.1 0.1 0 0.1-0.1 0.2 0 0.1-0.1 0.1-0.1 0-0.2 0-0.1 0-0.2 0-0.1-0.1-0.1-0.1-0.1-0.1-0.1-0.2-0.1-0.1-0.1-0.2c0-0.1 0.3-12.7-0.7-32.4-1 9.3-7 12.1-7 12.1 0 0 0-8.6 3.1-12.4 1.6-1.8 2.8-3.8 3.6-6-0.4-6.2-0.8-13.1-1.5-20.5-1.5 3.7-9.4 11.9-9.4 11.9 0 0 0.3-8.3 3.8-13.7q2.2-3.4 4.9-6.5c-0.6-7.2-1-14.3-1.4-21-0.2-0.6-0.3-1.2 0-1.5q-0.2-3.2-0.3-6.2l-12.4 14.3c0 0 3.2-9.9 5.4-12.7 1.9-2.5 5.9-2.2 7-2-0.3-10.3-0.3-19.1-0.3-25.4-4.9 1.6-9.2 9.6-9.2 9.6 0 0 1.6-10.8 4.1-11.8 1.6-0.6 3.7 0.3 5 1.1 0.1-5.9 0.2-9.4 0.2-9.5q0-0.1 0-0.1 0.1-0.1 0.1-0.2 0.1 0 0.2-0.1 0.1 0 0.2 0 0.1 0 0.1 0 0.1 0.1 0.2 0.1 0.1 0.1 0.1 0.2 0 0.1 0 0.2c0 0.1-0.2 3.8-0.2 10l0.4 0.2-0.4 0.1q0 3.3 0 7.5 1.3-0.5 2.7-0.4c0.9 0.1 1.7 0.3 2.5 0.8 2.5 1.6 2.5 13.3 2.5 13.3 0 0-6.2-8.4-7.6-12.5 0 6.6 0.2 14.5 0.6 23.3q0.2 0 0.4 0c0 0 3.1-0.3 5 3.5q1.5 3.7 2.2 7.6c0-16 1.2-28.8 1.2-29q0-0.2 0.2-0.3 0.1-0.1 0.3-0.1 0.1 0 0.2 0 0.1 0.1 0.1 0.1 0.1 0.1 0.1 0.2 0.1 0.1 0.1 0.2c-0.1 0.1-0.4 4-0.7 10q2.5 1.6 4.6 3.7c2.2 2.2 3.5 9.5 3.5 9.5 0 0-3.2 0-6.4-3.5-1.1-1.3-1.8-3-2-4.8-0.2 4.5-0.3 9.8-0.3 15.5q0-0.9 0.1-1.8c0 0 0.4-0.9 3.8 3.5 3.5 4.5 3.5 12.1 3.5 12.1-2.2-1.4-4-3.4-5.3-5.7-1.3-2.3-2-4.8-2.1-7.4q0 0.9 0 1.8l0.1-0.1q0.2 2.6 0 5.2c0.1 4 0.3 8.1 0.6 12.1 1.2 2.1 2.7 4 4.5 5.5 3.8 3.5 5.7 11.8 5.7 11.8q-2.7-3.9-6-7.3c-2.5-2.6-3.3-6.1-4.1-9.3q0.2 2.7 0.5 5.5c0.2 2.4 0.4 4.9 0.6 7.4 2.1 2.9 3.7 6.2 4.6 9.7 0 0-2.1-1.7-4.4-3.7q0 3.4 0 6.6c0.7-0.3 2.3-0.3 5.7 3.8 4.7 5.7 5.4 10.5 5.4 10.5zm-12.3-28q-0.2-3.1-0.5-6.2c-0.5-4.2-0.8-8.6-1-12.9q-0.7 3.6-2.1 7.1c-1.4-3.1-1.6-6.6-0.6-9.8q0.9-3.4 2.4-6.4v-0.1c-2-2.7-6.3-8.7-7.3-11 0.3 5.3 0.7 10.9 1.1 16.6q0.6 2.9 0.5 5.8 0.6 6.4 1 12.4 0-0.9 0-1.8c0 0 0 1.2 5.1 5q0.8 0.6 1.4 1.3z"/><path class="k" d="m453.8 304.9h-16.8l-3.6-37.7h23.9z"/><path class="l" d="m302.1 173.2v36.4h-42.1c-2.2 0-4.5 0.4-6.5 1.3-2.1 0.9-4 2.1-5.6 3.7-1.6 1.6-2.8 3.5-3.7 5.5-0.8 2.1-1.3 4.3-1.3 6.6 0 4.5 1.8 8.8 5 12 3.2 3.2 7.6 5 12.1 5 1 0 1.9 0.4 2.6 1.1 0.7 0.7 1.1 1.7 1.1 2.7v57h80.3v-131.3c0-5.5-2.2-10.8-6.1-14.8-3.9-3.9-9.2-6.1-14.7-6.2-2.8 0-5.5 0.5-8.1 1.6-2.5 1-4.9 2.6-6.8 4.5-2 2-3.5 4.3-4.6 6.8-1.1 2.6-1.6 5.3-1.6 8.1z"/><path class="m" d="m315.4 173.2v36.4h-42.1c-2.2 0-4.4 0.4-6.5 1.3-2.1 0.9-4 2.1-5.5 3.7-1.6 1.6-2.9 3.5-3.7 5.5-0.9 2.1-1.3 4.3-1.3 6.6 0 4.5 1.8 8.8 5 12 3.2 3.2 7.5 5 12 5 1 0 2 0.4 2.7 1.1 0.7 0.7 1.1 1.7 1.1 2.7v57h80.3v-131.3c0-5.5-2.2-10.8-6.1-14.8-3.9-3.9-9.2-6.1-14.7-6.2-2.8 0-5.6 0.5-8.1 1.6-2.6 1-4.9 2.6-6.9 4.5-1.9 2-3.5 4.3-4.6 6.8-1 2.6-1.6 5.3-1.6 8.1z"/><path class="k" d="m326.5 234l-16.5 3c0 0-0.5 8.5-3.5 14-2.1 3.5-5.2 6.1-9 7.5l-4 18.5c0 0 9.5 22 9.5 24.5 0 2.5-3.5 3-3.5 3h-20v-76.5h49.5z"/><path class="n" d="m308.6 220.1v-47.7c0-11.2 9.4-20.3 21-20.3h87c11.6 0 21 9.1 21 20.3v55.7h-110.3z"/><path class="k" d="m380.7 152.1l-1.8 7.7 11.1 3.4c0 0 4.6 1.6 6.5 5.8 1.9 4.2 3.1 13.2 3.1 13.2l0.3 8.7v17.1h-36l4.9-47.6 4.6-8z"/><path fill-rule="evenodd" class="o" d="m351.2 256.7q-21.6 2.2-43.2 2c-21.8-0.3-34.8-2.6-34.8-2.6"/><path class="p" d="m346.5 161.9c0 0-39.8 21.5-41.7 24.1-2 2.6-3.2 8 3.6 8.5 6.9 0.6 32.7-9.2 32.7-9.2z"/><path class="q" d="m343.1 171l-3.6 6.2-3.4-6.1 1.8 8.7-2.5-0.1 1.1 2.7-21.9 8.4c0 0 7.2 0.8 12.6-1.2 5.5-2 10.4-3.3 10.4-3.3z"/><g style="opacity:.3"><path class="r" d="m343.1 171l-3.6 6.2-3.4-6.1 1.8 8.7-2.5-0.1 1.1 2.7-21.9 8.4c0 0 7.2 0.8 12.6-1.2 5.5-2 10.4-3.3 10.4-3.3z"/></g><path fill-rule="evenodd" class="s" d="m346.5 161.9c0 0-39.8 21.5-41.7 24.1-2 2.6-3.2 8 3.6 8.5 6.9 0.6 32.7-9.2 32.7-9.2z"/><path class="t" d="m335.4 140.8c1.9-0.8 3.7-1.9 5.3-3.2 1.7-1.7 2.5-0.3 2.5 0.7 0 1 0.4 3.4-2 4.4-2.4 1-5.8 0.5-5.8-2z"/><path class="t" d="m329.8 143.1q1.6-1.4 3.5-2.5c1-0.4 7.1-2.1 8.4-1.5 1.4 0.6 3.2 3.3 3.7 4.4 0.5 1.1 0.2 2.7-1 2.6-1.2-0.1-4.2-3.6-4.2-3.6l-5 1.7c0 0-2.1 0.9-3.1 0.3-1-0.6-2-0.2-2.3-1.4z"/><path class="t" d="m330.1 141.4c0 0 2.3-0.8 2.9-0.3q1.9 1.2 4 1.7c2.1 0.7 4.5 1.5 5 3 0.5 1.6-2 4-2 4q-3.3-2.3-6.9-4.2c-2.1-1.1-5.5-3.4-3-4.2z"/><path class="p" d="m334.1 144.1l-2.2-1.6c0 0-2-1.6-3-0.3 0 0-3.2 11.9-3.7 13.4-0.5 1.4-23.8 23.4-25.1 28.2-0.4 2-0.1 4 0.9 5.7 1 1.8 2.6 3 4.5 3.6 2.9 0.7 6.8-7.1 8.5-11 1.7-3.9 15.2-24.4 15.2-24.4 0.8 0.3 1.6 0.3 2.4 0q1.4-1 2.4-2.4l2.5-1c1.2-0.5 4.1-5.4 4.4-6.1q0-0.1 0-0.2c-1.7-2.2-6.8-3.9-6.8-3.9z"/><path class="u" d="m303.6 192.3q0.9 0.5 1.9 0.8c2.9 0.7 6.8-7.1 8.5-11 1.7-3.9 15.2-24.4 15.2-24.4 0 0-25.1 28-25.8 32-0.2 0.9-0.1 1.7 0.2 2.5z"/><g style="opacity:.3"><path class="r" d="m303.6 192.3q0.9 0.5 1.9 0.8c2.9 0.7 6.8-7.1 8.5-11 1.7-3.9 15.2-24.4 15.2-24.4 0 0-25.1 28-25.8 32-0.2 0.9-0.1 1.7 0.2 2.5z"/></g><path fill-rule="evenodd" class="s" d="m334.1 144.1l-2.2-1.6c0 0-2-1.6-3-0.3 0 0-3.2 11.9-3.7 13.4-0.5 1.4-23.8 23.4-25.1 28.2-0.4 2-0.1 4 0.9 5.7 1 1.8 2.6 3 4.5 3.6 2.9 0.7 6.8-7.1 8.5-11 1.7-3.9 15.2-24.4 15.2-24.4 0.8 0.3 1.6 0.3 2.4 0q1.4-1 2.4-2.4l2.5-1c1.2-0.5 4.1-5.4 4.4-6.1q0-0.1 0-0.2c-1.7-2.2-6.8-3.9-6.8-3.9z"/><path fill-rule="evenodd" class="s" d="m331.9 151.6q1.6 0.6 3.3 0.8"/><path fill-rule="evenodd" class="s" d="m333.6 152.6c0 0-2 2.6 0.4 2.7"/><path fill-rule="evenodd" class="s" d="m330.6 146.2c0 0 5.5 2.6 6.5 3.5 0.4 0.4 0.7 0.8 0.8 1.3 0.2 0.5 0.2 1.1 0 1.6"/><path class="t" d="m346.7 145c0 0-1.2 2-0.6 2.6 0.6 0.5 2.4 0.9 2.6-0.5 0.1-1.3-0.2-2.6-2-2.1z"/><path class="v" d="m289.7 288.4c0 0 5.9 8.4 5.9 10.4 0 2-10.1 4.5-14.3 4.9-4.2 0.3-14.3 1.3-18.5 0.6-4.3-0.6 0-2.3 4.2-5.2 4.2-2.9 8.1-3.9 9.1-7.1z"/><path class="w" d="m281.3 303.7c4.2-0.4 14.3-3 14.3-4.9q-0.2-1.1-0.8-2.2c-5.7 2.8-12 4.4-18.4 4.8-6.8 0.3-11.1 0.4-13.6 0.4-2 1.3-2.7 2.1 0 2.5 4.2 0.7 14.3-0.3 18.5-0.6z"/><path class="p" d="m291.7 214.2c0 0-23.1-2-27.6-0.7-4.6 1.4-5.2 7.2-3.9 11.4 1.3 4.2 15.9 67.1 15.9 67.1l13.6-3.6-7.4-47.2z"/><path class="x" d="m287.8 219.1c0 0-9.7-2.3-9.4-0.6 0.4 1.6 1 4.3 1 4.3 0 0-5.7-6.7-6.3-2.3-0.7 4.3 9 24.3 9 24.3z"/><g style="opacity:.3"><path class="r" d="m287.8 219.1c0 0-9.7-2.3-9.4-0.6 0.4 1.6 1 4.3 1 4.3 0 0-5.7-6.7-6.3-2.3-0.7 4.3 9 24.3 9 24.3z"/></g><path fill-rule="evenodd" class="o" d="m291.7 214.2c0 0-23.1-2-27.6-0.7-4.6 1.4-5.2 7.2-3.9 11.4 1.3 4.2 15.9 67.1 15.9 67.1l13.6-3.6-7.4-47.2z"/><path fill-rule="evenodd" class="s" d="m277.3 222.9l5.2 7.7-0.6-8.6"/><path class="t" d="m365.7 157.5c0 0-18.5 3.7-19.2 4.4-0.8 0.7-17.6 49.5-17.6 49.5h43.2c0 0 19.7-48 18-49.2-1.8-1.3-20.7-5.2-24.4-4.7z"/><path class="y" d="m380.3 180l-0.9 1.9-5.4-3.9 3.9 5.4-9.3-0.7 6.1 3.9-10 17.5 10.5-1.7 6.9-15.8z"/><g style="opacity:.3"><path class="r" d="m380.3 180l-0.9 1.9-5.4-3.9 3.9 5.4-9.3-0.7 6.1 3.9-10 17.5 10.5-1.7 6.9-15.8z"/></g><path fill-rule="evenodd" class="s" d="m371.7 175.6l10.4 9.7-9.9-1.3"/><path class="z" d="m365.7 157.5c0 0-3.8 0.8-8 1.7-0.9 3.8-2.9 12.3-2.7 14.9 0.3 3.4 3 2.2 5.1 1.7 2-0.4 12.6-12.5 15.9-17.1-4.5-0.8-8.7-1.4-10.3-1.2z"/><path class="k" d="m337.6 191.9h8.3l-6.4 20.5h-8.7z"/><path class="t" d="m361.6 155.1c0 0-4.9 17-3.2 17.3 1.7 0.2 12.4-11.7 13.4-14.2 1-2.4 4.4-10.4 4.4-10.4 0 0-6.8 6.8-14.6 7.3z"/><path class="A" d="m371.8 158.2c1-2.4 4.4-10.4 4.4-10.4 0 0-6.8 6.8-14.6 7.3l-0.4 1.2c1.3 1 3.6 2.6 4.7 2.9 1 0.2-1 5.6-2.5 9.3 3.6-3.7 7.8-8.8 8.4-10.3z"/><g style="opacity:.3"><path class="r" d="m371.8 158.2c1-2.4 4.4-10.4 4.4-10.4 0 0-6.8 6.8-14.6 7.3l-0.4 1.2c1.3 1 3.6 2.6 4.7 2.9 1 0.2-1 5.6-2.5 9.3 3.6-3.7 7.8-8.8 8.4-10.3z"/></g><path class="z" d="m354.4 127.7c0 0-10.7 1.1-12.1-5.6-1.5-6.8 4.7-8.1 8.5-5 3 2.3-2-4.5 2.1-6.8 4.1-2.4 4.7 0.5 9.5 1.4 4.7 0.9 6.7-0.5 14.1-0.5 7.4 0 8.3 7.6 8.3 12.4 0 4.7-2.7 16.8-2.7 16.8 0 0-4.4 1.2-7.6 0-3.3-1.2-7.1-5-5.9-7.4 1.1-2.4-1.8-3.5-4.8-3.5-2.9 0-9.4-1.8-9.4-1.8z"/><path fill-rule="evenodd" class="B" d="m368.4 125.2q2.9-0.4 5.6-1.1c8.1-2.1 10.8 1.3 10.8 1.3"/><path fill-rule="evenodd" class="B" d="m361.2 125.1q1.6 0.3 3.2 0.3"/><path fill-rule="evenodd" class="B" d="m375.3 128.5c0 0 5.5-0.5 8.1 2.4"/><path class="C" d="m308.4 190.8q0 0.4-0.2 0.7-0.3 0.4-0.6 0.5-0.4 0.2-0.8 0.1-0.4-0.1-0.6-0.4-0.3-0.2-0.4-0.6-0.1-0.4 0.1-0.8 0.1-0.3 0.5-0.5 0.3-0.3 0.7-0.3 0.2 0 0.5 0.1 0.2 0.1 0.4 0.3 0.2 0.2 0.3 0.4 0.1 0.3 0.1 0.5z"/><path class="C" d="m309.1 191.2c0.9 0 1.6-0.7 1.6-1.6 0-0.9-0.7-1.6-1.6-1.6-0.9 0-1.6 0.7-1.6 1.6 0 0.9 0.7 1.6 1.6 1.6z"/><path class="C" d="m308.6 193.1c0.7 0 1.2-0.5 1.2-1.2 0-0.6-0.5-1.1-1.2-1.1-0.6 0-1.1 0.5-1.1 1.1 0 0.7 0.5 1.2 1.1 1.2z"/><path class="C" d="m337.3 190.8q0 0.4-0.2 0.7-0.2 0.3-0.6 0.5-0.4 0.1-0.8 0-0.3 0-0.6-0.3-0.3-0.3-0.4-0.7 0-0.3 0.1-0.7 0.1-0.4 0.5-0.6 0.3-0.2 0.7-0.2c0.3 0 0.7 0.1 0.9 0.4 0.2 0.2 0.4 0.5 0.4 0.9z"/><path class="C" d="m339.6 189.5q0 0.5-0.2 0.9-0.3 0.5-0.8 0.7-0.4 0.1-0.9 0-0.5 0-0.9-0.4-0.3-0.3-0.4-0.8-0.1-0.5 0.1-1 0.2-0.4 0.6-0.7 0.4-0.3 0.9-0.3c0.4 0 0.9 0.2 1.2 0.5 0.3 0.3 0.4 0.7 0.4 1.1z"/><path class="C" d="m338.7 191.9q0 0.4-0.2 0.7-0.2 0.3-0.5 0.4-0.3 0.1-0.7 0.1-0.3-0.1-0.6-0.4-0.2-0.2-0.3-0.6-0.1-0.3 0.1-0.7 0.1-0.3 0.4-0.5 0.3-0.2 0.7-0.2 0.2 0 0.4 0.1 0.2 0.1 0.4 0.3 0.2 0.1 0.3 0.3 0 0.3 0 0.5z"/><path class="C" d="m322.9 188.4q0 0.4-0.2 0.7-0.2 0.4-0.6 0.5-0.3 0.2-0.7 0.1-0.4-0.1-0.7-0.4-0.2-0.2-0.3-0.6-0.1-0.4 0.1-0.8 0.1-0.3 0.4-0.6 0.4-0.2 0.7-0.2 0.3 0 0.5 0.1 0.3 0.1 0.5 0.3 0.1 0.2 0.2 0.4 0.1 0.3 0.1 0.5z"/><path class="C" d="m325.3 187.2q0 0.5-0.3 0.9-0.3 0.4-0.7 0.6-0.5 0.2-1 0.1-0.4-0.1-0.8-0.5-0.3-0.3-0.4-0.8-0.1-0.5 0.1-0.9 0.1-0.5 0.6-0.8 0.4-0.2 0.9-0.2 0.3 0 0.6 0.1 0.3 0.1 0.5 0.3 0.2 0.3 0.4 0.6 0.1 0.3 0.1 0.6z"/><path class="C" d="m323.2 190.7c0.7 0 1.2-0.5 1.2-1.2 0-0.6-0.5-1.1-1.2-1.1-0.6 0-1.2 0.5-1.2 1.1 0 0.7 0.6 1.2 1.2 1.2z"/><path class="C" d="m318.4 188.3c0.8-0.1 1.3-0.6 1.3-1.3 0-0.8-0.5-1.3-1.2-1.3-0.8 0-1.3 0.5-1.3 1.3 0 0.7 0.5 1.2 1.3 1.2z"/><path class="C" d="m322.1 185.7q0 0.4-0.1 0.7-0.1 0.3-0.3 0.6-0.3 0.2-0.6 0.4-0.3 0.1-0.6 0.1-0.4 0-0.7-0.1-0.3-0.2-0.5-0.4-0.3-0.3-0.4-0.6-0.1-0.3-0.1-0.7c0.1-0.4 0.3-0.8 0.6-1 0.3-0.3 0.7-0.5 1.1-0.5 0.4 0 0.8 0.2 1.1 0.5 0.3 0.2 0.5 0.6 0.5 1z"/><path class="C" d="m321.2 188.1q0 0.3-0.2 0.6-0.2 0.3-0.5 0.5-0.4 0.1-0.7 0-0.4 0-0.6-0.3-0.3-0.2-0.3-0.6-0.1-0.3 0-0.7 0.2-0.3 0.5-0.5 0.3-0.2 0.6-0.2 0.3 0 0.5 0.1 0.2 0.1 0.4 0.3 0.1 0.1 0.2 0.3 0.1 0.3 0.1 0.5z"/><path class="C" d="m328.5 188.1q0 0.4-0.2 0.7-0.2 0.3-0.6 0.5-0.3 0.1-0.7 0.1-0.4-0.1-0.7-0.4-0.2-0.3-0.3-0.7-0.1-0.3 0.1-0.7 0.1-0.4 0.4-0.6 0.4-0.2 0.7-0.2 0.3 0 0.5 0.1 0.3 0.1 0.5 0.3 0.1 0.2 0.2 0.4 0.1 0.2 0.1 0.5z"/><path class="C" d="m329.3 188.5c0.9 0 1.6-0.8 1.6-1.6 0-0.9-0.7-1.7-1.6-1.7-0.9 0-1.7 0.8-1.7 1.7 0 0.8 0.8 1.6 1.7 1.6z"/><path class="C" d="m328.8 190.4c0.7 0 1.2-0.5 1.2-1.2 0-0.6-0.5-1.2-1.2-1.2-0.6 0-1.2 0.6-1.2 1.2 0 0.7 0.6 1.2 1.2 1.2z"/><path class="C" d="m333.1 187.8q0.2-0.4 0.5-0.6 0.3-0.3 0.7-0.3 0.4 0 0.7 0.2 0.4 0.2 0.5 0.6 0.2 0.4 0.1 0.7-0.1 0.4-0.3 0.7-0.3 0.3-0.7 0.4-0.4 0.1-0.7-0.1-0.3-0.1-0.5-0.2-0.1-0.2-0.2-0.5-0.2-0.2-0.2-0.5 0-0.2 0.1-0.5z"/><path class="C" d="m330.5 188q0.2-0.5 0.6-0.7 0.4-0.3 0.9-0.3 0.5 0 0.9 0.2 0.4 0.3 0.6 0.7 0.2 0.5 0.1 1-0.1 0.5-0.4 0.8-0.4 0.4-0.8 0.5-0.5 0.1-1-0.1-0.3-0.1-0.5-0.3-0.3-0.3-0.4-0.6-0.1-0.2-0.1-0.6 0-0.3 0.1-0.6z"/><path class="C" d="m332.2 186.2q0.1-0.2 0.2-0.4 0.2-0.2 0.4-0.3 0.2-0.1 0.5-0.1 0.2 0 0.4 0.1 0.3 0.1 0.6 0.4 0.2 0.3 0.2 0.7 0 0.3-0.2 0.6-0.2 0.3-0.5 0.5-0.4 0.1-0.7 0.1-0.4-0.1-0.6-0.3-0.3-0.3-0.4-0.6 0-0.4 0.1-0.7z"/><path class="C" d="m335.4 189.8q0.1-0.3 0.5-0.6 0.3-0.2 0.7-0.2 0.4 0 0.7 0.2 0.3 0.2 0.5 0.6 0.1 0.3 0.1 0.7-0.1 0.4-0.4 0.7-0.3 0.3-0.6 0.4-0.4 0-0.8-0.1c-0.3-0.1-0.6-0.4-0.7-0.7-0.1-0.3-0.1-0.7 0-1z"/><path class="C" d="m332.8 190.1q0.1-0.4 0.5-0.7 0.4-0.3 0.9-0.3 0.5 0 0.9 0.2 0.5 0.3 0.7 0.8 0.2 0.4 0.1 0.9-0.1 0.5-0.5 0.8-0.3 0.4-0.8 0.5-0.5 0.1-0.9-0.1c-0.4-0.1-0.8-0.4-0.9-0.8-0.2-0.4-0.2-0.9-0.1-1.3z"/><path class="C" d="m334.4 188.3q0.2-0.4 0.5-0.6 0.3-0.2 0.6-0.2 0.4 0 0.7 0.2 0.3 0.2 0.4 0.5 0.1 0.3 0.1 0.7-0.1 0.3-0.3 0.6-0.3 0.2-0.6 0.3-0.4 0.1-0.7 0-0.2-0.1-0.4-0.3-0.1-0.1-0.2-0.3-0.1-0.3-0.1-0.5 0-0.2 0-0.4z"/><path class="C" d="m316.1 187.4q0.1-0.3 0.3-0.5 0.2-0.1 0.4-0.2 0.2-0.1 0.5-0.2 0.2 0 0.5 0.1c0.3 0.2 0.5 0.4 0.6 0.7 0.2 0.3 0.2 0.7 0.1 1-0.2 0.3-0.4 0.6-0.7 0.7-0.3 0.1-0.6 0.1-1 0-0.3-0.1-0.5-0.3-0.7-0.6-0.1-0.4-0.1-0.7 0-1z"/><path class="C" d="m313.5 187.7q0.1-0.5 0.6-0.8 0.4-0.3 0.8-0.3 0.5 0 1 0.3 0.4 0.2 0.6 0.7 0.2 0.4 0.1 0.9-0.1 0.5-0.4 0.9-0.4 0.3-0.9 0.4-0.4 0.1-0.9 0-0.3-0.2-0.5-0.4-0.3-0.2-0.4-0.5-0.1-0.3-0.1-0.6 0-0.3 0.1-0.6z"/><path class="C" d="m315.2 185.8c0.1-0.3 0.3-0.5 0.6-0.7 0.3-0.1 0.6-0.1 0.9 0 0.3 0.1 0.5 0.4 0.6 0.6 0.2 0.3 0.2 0.7 0.1 0.9-0.2 0.3-0.4 0.6-0.7 0.7-0.3 0.1-0.6 0.1-0.9 0-0.3-0.1-0.5-0.3-0.6-0.6-0.1-0.3-0.2-0.6 0-0.9z"/><path class="C" d="m323.6 191.1q0 0.4-0.2 0.7-0.2 0.3-0.6 0.5-0.3 0.1-0.7 0-0.4-0.1-0.7-0.3-0.3-0.3-0.3-0.7-0.1-0.4 0-0.7 0.2-0.4 0.5-0.6 0.3-0.2 0.7-0.2 0.3 0 0.5 0.1 0.3 0.1 0.4 0.2 0.2 0.2 0.3 0.5 0.1 0.2 0.1 0.5z"/><path class="C" d="m326 189.8q0 0.5-0.3 0.9-0.2 0.4-0.7 0.6-0.5 0.2-0.9 0.1-0.5-0.1-0.9-0.4-0.3-0.4-0.4-0.9-0.1-0.4 0.1-0.9 0.2-0.5 0.6-0.7 0.4-0.3 0.9-0.3c0.4 0 0.8 0.2 1.1 0.5 0.3 0.3 0.5 0.7 0.5 1.1z"/><path class="C" d="m323.9 193.4c0.6 0 1.2-0.6 1.2-1.2 0-0.7-0.6-1.2-1.2-1.2-0.7 0-1.2 0.5-1.2 1.2 0 0.6 0.5 1.2 1.2 1.2z"/><path class="C" d="m312.1 191.9q-0.4 0.2-0.7 0.1-0.4 0-0.7-0.3-0.3-0.2-0.4-0.6-0.1-0.4 0-0.7 0.1-0.4 0.4-0.7 0.3-0.2 0.7-0.2 0.4-0.1 0.7 0.1 0.4 0.2 0.5 0.6 0.2 0.2 0.2 0.4 0 0.3-0.1 0.5 0 0.3-0.2 0.5-0.2 0.2-0.4 0.3z"/><path class="C" d="m314.3 193.4q-0.3 0.2-0.6 0.2-0.4 0.1-0.7 0-0.3-0.1-0.6-0.3-0.3-0.2-0.4-0.5-0.2-0.3-0.2-0.6 0-0.4 0.1-0.7 0.1-0.3 0.3-0.6 0.3-0.2 0.6-0.4c0.3-0.1 0.8-0.1 1.2 0 0.4 0.1 0.7 0.4 0.9 0.8 0.2 0.3 0.2 0.8 0.1 1.2-0.1 0.4-0.4 0.7-0.7 0.9z"/><path class="C" d="m311.8 193.7q-0.3 0.2-0.7 0.1-0.4 0-0.6-0.2-0.3-0.3-0.4-0.6-0.1-0.3 0-0.7 0.1-0.3 0.4-0.6 0.3-0.2 0.6-0.2 0.4 0 0.7 0.1 0.3 0.2 0.5 0.5 0.1 0.2 0.1 0.5 0 0.2 0 0.4-0.1 0.2-0.3 0.4-0.1 0.2-0.3 0.3z"/><path class="C" d="m314.4 189.4q-0.4 0.2-0.8 0.2-0.4-0.1-0.7-0.3-0.3-0.3-0.4-0.7-0.1-0.3 0-0.7 0.1-0.4 0.4-0.6 0.4-0.3 0.7-0.3 0.4 0 0.8 0.2 0.3 0.1 0.5 0.5 0.1 0.2 0.1 0.5 0.1 0.2 0 0.5-0.1 0.2-0.3 0.4-0.1 0.2-0.3 0.3z"/><path class="C" d="m316.5 191c-0.4 0.2-0.8 0.2-1.2 0.1-0.4-0.1-0.8-0.4-1-0.8-0.2-0.4-0.2-0.8-0.1-1.2 0.2-0.4 0.4-0.8 0.8-1q0.3-0.1 0.6-0.2 0.4 0 0.7 0.1 0.3 0.1 0.5 0.3 0.3 0.2 0.4 0.5 0.2 0.3 0.2 0.6 0 0.3-0.1 0.6-0.1 0.4-0.3 0.6-0.2 0.3-0.5 0.4z"/><path class="C" d="m314 191.2q-0.3 0.2-0.7 0.2-0.3-0.1-0.6-0.3-0.3-0.2-0.4-0.6-0.1-0.3 0.1-0.7 0.1-0.3 0.3-0.5 0.3-0.2 0.7-0.3 0.3 0 0.6 0.2 0.3 0.1 0.5 0.4 0.1 0.3 0.1 0.5 0.1 0.2 0 0.5-0.1 0.2-0.2 0.4-0.2 0.1-0.4 0.2z"/><path class="C" d="m332.4 190.6q-0.4 0.1-0.7 0.1-0.4-0.1-0.7-0.3-0.3-0.3-0.4-0.6-0.1-0.4 0-0.8 0.1-0.4 0.4-0.6 0.3-0.2 0.7-0.3 0.4 0 0.7 0.2 0.4 0.2 0.5 0.5 0.2 0.2 0.2 0.5 0 0.2-0.1 0.5 0 0.2-0.2 0.4-0.2 0.2-0.4 0.4z"/><path class="C" d="m334.6 192.1q-0.5 0.2-1 0.1-0.4 0-0.8-0.3-0.4-0.3-0.5-0.8-0.2-0.5 0-1 0.1-0.4 0.5-0.7 0.4-0.4 0.9-0.4 0.5 0 0.9 0.2 0.4 0.2 0.7 0.7c0.2 0.4 0.2 0.8 0.1 1.2-0.2 0.4-0.4 0.8-0.8 1z"/><path class="C" d="m332.1 192.4q-0.3 0.1-0.7 0.1-0.3-0.1-0.6-0.3-0.3-0.2-0.4-0.5-0.1-0.4 0-0.7 0.1-0.4 0.4-0.6 0.3-0.2 0.6-0.2 0.4-0.1 0.7 0.1 0.3 0.2 0.5 0.5c0.1 0.2 0.1 0.6 0.1 0.9-0.1 0.3-0.3 0.5-0.6 0.7z"/><path class="C" d="m319.9 192.6q-0.3 0.2-0.7 0.2-0.4-0.1-0.7-0.3-0.3-0.3-0.4-0.6-0.1-0.4 0-0.8 0.1-0.4 0.4-0.6 0.3-0.3 0.7-0.3 0.4 0 0.7 0.2 0.4 0.2 0.6 0.5 0.1 0.2 0.1 0.5 0 0.2 0 0.5-0.1 0.2-0.3 0.4-0.2 0.2-0.4 0.3z"/><path class="C" d="m322 194.2c0.8-0.4 1.2-1.3 0.8-2.1-0.3-0.9-1.3-1.2-2.1-0.9-0.8 0.4-1.2 1.4-0.8 2.2 0.3 0.8 1.3 1.2 2.1 0.8z"/><path class="C" d="m319.6 194.4c-0.3 0.2-0.6 0.2-0.9 0.1-0.3-0.1-0.5-0.3-0.6-0.6-0.2-0.2-0.2-0.6-0.1-0.8 0.1-0.3 0.2-0.6 0.5-0.7q0.2-0.2 0.5-0.2 0.2 0 0.4 0 0.3 0.1 0.5 0.3 0.1 0.1 0.3 0.3 0.1 0.2 0.1 0.5 0 0.2-0.1 0.5-0.1 0.2-0.2 0.4-0.2 0.1-0.4 0.2z"/><path class="C" d="m316 191.5q-0.2 0.1-0.5 0.2-0.2 0-0.5-0.1-0.2-0.1-0.4-0.2-0.2-0.2-0.3-0.4-0.2-0.3-0.2-0.5 0-0.3 0.1-0.5 0.1-0.3 0.2-0.5 0.2-0.2 0.4-0.3c0.3-0.1 0.7-0.2 1-0.1 0.3 0.1 0.6 0.4 0.8 0.7 0.1 0.3 0.1 0.6 0 1-0.1 0.3-0.3 0.6-0.6 0.7z"/><path class="C" d="m318.2 193q-0.5 0.2-0.9 0.2-0.5-0.1-0.9-0.4-0.4-0.3-0.5-0.8-0.2-0.5 0-0.9 0.1-0.5 0.5-0.8 0.4-0.3 0.9-0.4 0.5 0 0.9 0.2 0.4 0.3 0.7 0.7 0.1 0.3 0.2 0.6 0 0.3-0.1 0.7-0.1 0.3-0.3 0.5-0.2 0.3-0.5 0.4z"/><path class="C" d="m315.7 193.3q-0.3 0.2-0.7 0.2-0.3-0.1-0.6-0.3-0.3-0.2-0.4-0.6-0.1-0.3 0-0.7 0.1-0.3 0.4-0.5 0.3-0.3 0.6-0.3 0.4 0 0.7 0.1 0.3 0.2 0.5 0.5c0.1 0.3 0.2 0.6 0.1 0.9-0.1 0.3-0.3 0.6-0.6 0.7z"/><path class="C" d="m319.1 189.6q-0.3 0.1-0.7 0.1-0.4-0.1-0.7-0.3-0.3-0.3-0.4-0.6-0.1-0.4 0-0.8 0.1-0.4 0.4-0.6 0.4-0.2 0.7-0.3 0.4 0 0.8 0.2 0.3 0.2 0.5 0.5 0.1 0.2 0.1 0.5 0.1 0.2 0 0.5-0.1 0.2-0.3 0.4-0.1 0.2-0.4 0.4z"/><path class="C" d="m321.3 191.1q-0.4 0.2-0.9 0.1-0.5 0-0.9-0.3-0.3-0.3-0.5-0.8-0.1-0.5 0-1 0.2-0.4 0.6-0.7 0.4-0.3 0.8-0.4 0.5 0 1 0.2 0.4 0.2 0.6 0.7 0.2 0.3 0.2 0.6 0 0.3-0.1 0.6-0.1 0.3-0.3 0.6-0.2 0.2-0.5 0.4z"/><path class="C" d="m318.8 191.4q-0.3 0.1-0.6 0.1-0.4-0.1-0.7-0.3-0.2-0.2-0.3-0.6-0.1-0.3 0-0.6 0.1-0.4 0.3-0.6 0.3-0.2 0.7-0.3 0.3 0 0.7 0.2 0.3 0.2 0.4 0.5c0.2 0.2 0.2 0.6 0.1 0.9-0.1 0.3-0.3 0.5-0.6 0.7z"/><path class="C" d="m311.5 188.1q-0.3 0.2-0.7 0.2-0.4-0.1-0.7-0.3-0.3-0.3-0.4-0.7-0.1-0.3 0-0.7 0.1-0.4 0.4-0.6 0.3-0.3 0.7-0.3 0.4 0 0.8 0.1 0.3 0.2 0.5 0.6 0.1 0.2 0.1 0.5 0 0.2 0 0.5-0.1 0.2-0.3 0.4-0.1 0.2-0.4 0.3z"/><path class="C" d="m313.6 189.7c0.8-0.4 1.2-1.3 0.8-2.2-0.3-0.8-1.3-1.1-2.1-0.8-0.8 0.4-1.2 1.4-0.8 2.2 0.3 0.8 1.3 1.2 2.1 0.8z"/><path class="C" d="m311.2 189.9c-0.3 0.2-0.6 0.2-0.9 0.1-0.3-0.1-0.5-0.3-0.7-0.6-0.1-0.2-0.1-0.6-0.1-0.9 0.1-0.3 0.3-0.5 0.6-0.6q0.2-0.2 0.5-0.2 0.2 0 0.4 0.1 0.2 0 0.4 0.2 0.2 0.1 0.3 0.3 0.1 0.3 0.1 0.5 0.1 0.2 0 0.4-0.1 0.3-0.2 0.4-0.2 0.2-0.4 0.3z"/><path class="C" d="m327.7 190.1q-0.3 0.2-0.5 0.2-0.3 0-0.6 0-0.2-0.1-0.4-0.3-0.2-0.1-0.4-0.4-0.1-0.2-0.1-0.5 0-0.3 0.1-0.5 0.1-0.3 0.2-0.5 0.2-0.2 0.5-0.3 0.2-0.1 0.5-0.1 0.2 0 0.5 0 0.2 0.1 0.4 0.3 0.2 0.1 0.3 0.4c0.2 0.3 0.2 0.6 0.1 1-0.1 0.3-0.3 0.6-0.6 0.7z"/><path class="C" d="m329.9 191.6c-0.4 0.2-0.9 0.3-1.3 0.1-0.4-0.1-0.7-0.4-0.9-0.8-0.2-0.3-0.2-0.8-0.1-1.2 0.2-0.3 0.4-0.7 0.8-0.9 0.4-0.1 0.8-0.2 1.2-0.1 0.4 0.1 0.7 0.4 0.9 0.7 0.2 0.4 0.3 0.9 0.1 1.3-0.1 0.4-0.4 0.7-0.7 0.9z"/><path class="C" d="m327.4 191.9q-0.4 0.2-0.7 0.1-0.4 0-0.7-0.2-0.2-0.3-0.3-0.6-0.1-0.3 0-0.7 0.1-0.3 0.4-0.5 0.2-0.3 0.6-0.3 0.4 0 0.7 0.1 0.3 0.2 0.5 0.5c0.1 0.3 0.1 0.6 0 0.9-0.1 0.3-0.3 0.6-0.5 0.7z"/><path class="w" d="m334.7 216.4h-24.1l-5.2-25.6h34.5z"/><path class="k" d="m321.8 216.4l17.6-25.6h-7.2l-17.2 25.6z"/><path class="k" d="m310.2 214.5l16-23.7h-8.2l-9.6 15z"/><path class="p" d="m353.5 212.2c0 0-25.7-1.6-38-2.6-12.4-1-21.2-4.9-25 0.7-3.9 5.5-24.5 73.1-24.5 73.1l-2.3 4.6c0 0 11.1 8.1 13.4 8.1 2.3 0 12-34.4 17.8-40.6 5.9-6.2 10.1-21.2 10.1-21.2h45.2z"/><path class="D" d="m312 217.7q-2.4 1.5-4.3 3.6c0 0-3.4-7.3-4.4-4.6-1 2.6 1.4 8.3 1.4 8.3 0 0-4.7-2.3-4.4 0.7q0.3 2.8 0.4 5.6c0 0-5.7 12-9.7 21.4-4 9.3-15.7 36.6-17 41q-0.1 0.5-0.2 1 1.5 1 3.3 1.4c2.2 0 12-34.5 17.8-40.7 5.9-6.1 10.1-21.1 10.1-21.1h43.3c0.6-1.4 1.1-2.5 1.3-3l-16-18c0 0-18.2 2-21.6 4.4z"/><g style="opacity:.3"><path class="r" d="m312 217.7q-2.4 1.5-4.3 3.6c0 0-3.4-7.3-4.4-4.6-1 2.6 1.4 8.3 1.4 8.3 0 0-4.7-2.3-4.4 0.7q0.3 2.8 0.4 5.6c0 0-5.7 12-9.7 21.4-4 9.3-15.7 36.6-17 41q-0.1 0.5-0.2 1 1.5 1 3.3 1.4c2.2 0 12-34.5 17.8-40.7 5.9-6.1 10.1-21.1 10.1-21.1h43.3c0.6-1.4 1.1-2.5 1.3-3l-16-18c0 0-18.2 2-21.6 4.4z"/></g><path fill-rule="evenodd" class="o" d="m353.5 212.2c0 0-25.7-1.6-38-2.6-12.4-1-21.2-4.9-25 0.7-3.9 5.5-24.5 73.1-24.5 73.1l-2.3 4.6c0 0 11.1 8.1 13.4 8.1 2.3 0 12-34.4 17.8-40.6 5.9-6.2 10.1-21.2 10.1-21.2h45.2z"/><path fill-rule="evenodd" class="s" d="m308.6 224.9l-3.6 9.4 6.8-6.5"/><path class="v" d="m263.7 288c0 0-9.1 0.3-11.7 0-2.6-0.3-9.1-3.6-10.4-1-1.3 2.6 4.3 6.8 8.5 10.1 4.2 3.2 16.9 7.5 20.8 8.1 3.9 0.7 6.2-9.1 6.2-9.1z"/><path class="w" d="m273.7 303.8c-4.2-1.2-12.3-3.6-16.8-5.4-4.4-1.9-11.6-8.5-15-11.8q-0.2 0.2-0.3 0.4c-1.3 2.6 4.3 6.8 8.5 10.1 4.2 3.2 16.9 7.4 20.8 8.1q0.8 0 1.6-0.3 0.8-0.4 1.2-1.1z"/><path class="E" d="m390.1 173.2v36.4h-45.7c-10.3 0-18.6 7.7-18.6 17.1 0 9.4 8.3 17 18.6 17h0.3q0.7 0 1.4 0.3 0.7 0.3 1.2 0.8 0.6 0.6 0.9 1.2 0.2 0.7 0.2 1.5v57h87.3v-131.3c0-11.5-10.1-20.9-22.6-21-12.7-0.1-23 9.4-23 21z"/><path class="k" d="m399.8 208v-17.1l-0.3-8.7c0 0-1.2-9-3.1-13.2-0.9-1.9-2.3-3.5-4.1-4.7-1.4 2.8-2.2 5.8-2.2 8.9v34.8z"/><path class="F" d="m398.3 173.2v36.4h-42.1c-4.5 0-8.8 1.8-12 5-3.2 3.2-5 7.5-5 12.1 0 2.2 0.4 4.4 1.3 6.5 0.8 2.1 2.1 4 3.7 5.5 1.5 1.6 3.4 2.9 5.5 3.7 2.1 0.9 4.3 1.3 6.5 1.3q0.8 0 1.5 0.3 0.6 0.3 1.2 0.8 0.5 0.6 0.8 1.2 0.3 0.7 0.3 1.5v57h80.3v-131.3c0-5.5-2.2-10.8-6.1-14.8-3.9-3.9-9.2-6.1-14.8-6.2-2.7 0-5.5 0.5-8 1.6-2.6 1-4.9 2.6-6.9 4.5-1.9 2-3.5 4.3-4.6 6.8-1 2.6-1.6 5.3-1.6 8.1z"/><path class="G" d="m398.3 173.2v36.4h-42.1c-4.5 0-8.8 1.8-12 5-3.2 3.2-5 7.5-5 12.1 0 2.2 0.4 4.4 1.3 6.5 0.8 2.1 2.1 4 3.7 5.5 1.5 1.6 3.4 2.9 5.5 3.7 2.1 0.9 4.3 1.3 6.5 1.3q0.8 0 1.5 0.3 0.6 0.3 1.2 0.8 0.5 0.6 0.8 1.2 0.3 0.7 0.3 1.5v57h80.3v-131.3c0-5.5-2.2-10.8-6.1-14.8-3.9-3.9-9.2-6.1-14.8-6.2-2.7 0-5.5 0.5-8 1.6-2.6 1-4.9 2.6-6.9 4.5-1.9 2-3.5 4.3-4.6 6.8-1 2.6-1.6 5.3-1.6 8.1z"/><path class="p" d="m379.1 174.6l6.6 29.7c0 0 2.9 6.4 9.2 5.7 6.4-0.8 9.6-9 7.6-13.5-1.9-4.4-12.4-34.3-12.4-34.3l-8-2"/><path class="H" d="m385.5 161.4c2.1 1.9 3.7 4.4 4.4 7.1 1 4.2 9.2 26.6 9 29.2-0.1 2.5-6.4 3.4-6.4 3.4 0 0 4.7 3.5 5.4 5.2l0.8 1.7c0 0 4.1-2.2 4.5-5.9 0-2.7-0.5-5.3-1.7-7.7l-11.4-32.3z"/><g style="opacity:.3"><path class="r" d="m385.5 161.4c2.1 1.9 3.7 4.4 4.4 7.1 1 4.2 9.2 26.6 9 29.2-0.1 2.5-6.4 3.4-6.4 3.4 0 0 4.7 3.5 5.4 5.2l0.8 1.7c0 0 4.1-2.2 4.5-5.9 0-2.7-0.5-5.3-1.7-7.7l-11.4-32.3z"/></g><path fill-rule="evenodd" class="s" d="m379.1 174.6l6.6 29.7c0 0 2.9 6.4 9.2 5.7 6.4-0.8 9.6-9 7.6-13.5-1.9-4.4-12.4-34.3-12.4-34.3l-8-2"/><path class="p" d="m398.6 208c0 0 0.3-4.4-5.1-6.6-5.4-2.2-7.3-0.2-11.5 0q-13.6 1.4-27 4.2c-7.1 1.7-12.1-1.4-14.1 0.8-1.1 1.3-2 2.7-2.7 4.2 0 0 31.7-0.4 42.6-0.9 11-0.5 16.6 1.4 17.8-1.7z"/><path class="I" d="m394.3 202.1c0 0 0.4 1-2.3 2.7-2.7 1.7-40.9 5.2-40.9 5.2h43.9c0 0 4.3-1.1 4.3-2.1 0-1-2.3-5.8-5-5.8z"/><g style="opacity:.3"><path class="r" d="m394.3 202.1c0 0 0.4 1-2.3 2.7-2.7 1.7-40.9 5.2-40.9 5.2h43.9c0 0 4.3-1.1 4.3-2.1 0-1-2.3-5.8-5-5.8z"/></g><path fill-rule="evenodd" class="s" d="m398.6 208c0 0 0.3-4.4-5.1-6.6-5.4-2.2-7.3-0.2-11.5 0q-13.6 1.4-27 4.2c-7.1 1.7-12.1-1.4-14.1 0.8-1.1 1.3-2 2.7-2.7 4.2 0 0 31.7-0.4 42.6-0.9 11-0.5 16.6 1.4 17.8-1.7z"/><path class="w" d="m272.4 186.5q-0.2 0-0.4-0.1-0.4-0.1-0.5-0.5-0.2-0.4 0-0.8l5.1-11.8q0.1-0.3 0.3-0.4 0.2-0.2 0.5-0.2l9.8-0.8q0.3-0.1 0.5-0.1 0.2 0.1 0.4 0.2 0.2 0.1 0.3 0.3 0.1 0.2 0.1 0.4 0.1 0.3 0 0.5-0.1 0.2-0.3 0.3-0.1 0.2-0.3 0.3-0.3 0-0.5 0l-9.3 0.8-4.8 11.3q-0.2 0.3-0.4 0.4-0.2 0.2-0.5 0.2z"/><path class="v" d="m275.9 209.1h-12.1l-2.6-25.5h17.3z"/><path class="w" d="m279 181.9h-18.3v3.6h18.3z"/><path class="p" d="m354.4 127.7c0 0-2.7 15.3-1.8 20 0.9 4.8 4.7 9.2 12.4 8.9 7.7-0.3 11.2-8.9 11.2-8.9 0 0 7.4-0.3 8.3-4.1 0.9-3.8-0.9-6.5-2.9-6.5q-2.6 0.2-5 1.2c0 0-5.4-2.1-5-4.1 0.3-2.1 4.7-5.4 3.8-6.5-0.9-1.2-21 0-21 0z"/><path class="J" d="m384.5 143.6c0.9-3.8-0.9-6.5-2.9-6.5q-2.6 0.2-5 1.2c0 0-5.4-2.1-5-4.1 0.3-2.1 4.7-5.4 3.8-6.5-0.2-0.3-1.7-0.5-3.8-0.5-0.5 1.1-3.7 8-1.8 13 2 5.4 1.7 11-0.5 13.2-1.9 1.9-6.4 2.8-7.4 3q1.6 0.2 3.2 0.2c7.6-0.3 11.2-8.9 11.2-8.9 0 0 7.3-0.3 8.2-4.1z"/><g style="opacity:.3"><path class="r" d="m384.5 143.6c0.9-3.8-0.9-6.5-2.9-6.5q-2.6 0.2-5 1.2c0 0-5.4-2.1-5-4.1 0.3-2.1 4.7-5.4 3.8-6.5-0.2-0.3-1.7-0.5-3.8-0.5-0.5 1.1-3.7 8-1.8 13 2 5.4 1.7 11-0.5 13.2-1.9 1.9-6.4 2.8-7.4 3q1.6 0.2 3.2 0.2c7.6-0.3 11.2-8.9 11.2-8.9 0 0 7.3-0.3 8.2-4.1z"/></g><path fill-rule="evenodd" class="s" d="m354.4 127.7c0 0-2.7 15.3-1.8 20 0.9 4.8 4.7 9.2 12.4 8.9 7.7-0.3 11.2-8.9 11.2-8.9 0 0 7.4-0.3 8.3-4.1 0.9-3.8-0.9-6.5-2.9-6.5q-2.6 0.2-5 1.2c0 0-5.4-2.1-5-4.1 0.3-2.1 4.7-5.4 3.8-6.5-0.9-1.2-21 0-21 0z"/><path class="z" d="m354.7 142.4c0 0 7.1 3.6 13.6 0.3 0 0-0.6 7.1-7.4 7.7-6.8 0.6-6.2-8-6.2-8z"/><path fill-rule="evenodd" class="s" d="m359.7 135.3l-0.3 1.8c0 0-2.4 1.2-1.5 2.4q0.5 0.5 1.2 0.7 0.7 0.3 1.5 0.2"/><path class="k" d="m365.4 134.4c0 0.9-0.4 1.6-0.9 1.6-0.5 0-0.9-0.7-0.9-1.6 0-0.8 0.4-1.5 0.9-1.5 0.5 0 0.9 0.7 0.9 1.5z"/><path class="k" d="m357.4 133.6c0 0.9-0.4 1.6-0.8 1.6-0.5 0-0.9-0.7-0.9-1.6 0-0.8 0.4-1.5 0.9-1.5 0.4 0 0.8 0.7 0.8 1.5z"/><path class="t" d="m357.5 149.7c1 0.6 2.2 0.8 3.4 0.7 1.3-0.1 2.6-0.5 3.8-1.3 1.1-0.8 2-1.8 2.6-3-5.7-0.3-8.4 1.7-9.8 3.6z"/><path fill-rule="evenodd" class="s" d="m363.8 129.4c0 0 3.5-2.6 4.3 1.5"/><path fill-rule="evenodd" class="s" d="m358.9 129.8c0 0-1.7-2.2-3.2-0.2"/><path class="t" d="m90.8 233.8h-3.9l11.6-11.2h3.9z"/><path class="z" d="m88.1 233.8h-3.9l11.6-11.2h3.9z"/><path class="t" d="m107.7 233.8h3.9l-11.6-11.2h-3.9z"/><path class="z" d="m110.4 233.8h3.9l-11.6-11.2h-3.9z"/><path class="t" d="m201.9 233.8h-3.8l11.5-11.2h3.9z"/><path class="z" d="m199.3 233.8h-3.9l11.6-11.2h3.9z"/><path class="z" d="m218.9 233.8h3.9l-11.6-11.2h-3.9z"/><path class="t" d="m221.6 233.8h3.9l-11.6-11.2h-3.9z"/><path class="z" d="m228.8 134.1h-138.1v91.9h138.1z"/><path class="z" d="m226.5 134.1h-138.1v91.9h138.1z"/><path class="z" d="m224.2 226v-91.9h-138.1v1.2l-3 6.5v84.2z"/><path class="z" d="m224.2 226v-91.9l-3.6 7.7v84.2z"/><path class="t" d="m83.1 141.8h137.5l3.6-7.7h-138.1z"/><path fill-rule="evenodd" class="K" d="m89.5 215.3l121.5-0.1"/><path class="L" d="m185 207.4h-70.1c-0.4-0.1-0.7-0.2-1-0.5-0.2-0.3-0.3-0.6-0.3-1 0-0.4 0.1-0.7 0.3-1 0.3-0.3 0.6-0.4 1-0.5h70.1c0.4 0.1 0.7 0.2 1 0.5 0.2 0.3 0.3 0.6 0.3 1 0 0.4-0.1 0.7-0.3 1-0.3 0.3-0.6 0.4-1 0.5z"/><path fill-rule="evenodd" class="K" d="m112.7 182.2v-33.3h70.7v35.2"/><path class="z" d="m244.8 239.2h-174.5v65.3h174.5z"/><path class="M" d="m244.8 239.2h-63.8v65.3h63.7z"/><g style="opacity:.3"><path class="r" d="m244.8 239.2h-63.8v65.3h63.7z"/></g><path class="z" d="m248.5 232.9h-181.9v7.3h181.9z"/><path class="z" d="m244.6 237.4h-174.2v7.3h174.2z"/><path class="N" d="m248.5 232.9h-61v7.3h61z"/><g style="opacity:.3"><path class="r" d="m248.5 232.9h-61v7.3h61z"/></g></svg>