<svg width="500" height="500" viewBox="0 0 500 500" fill="none" xmlns="http://www.w3.org/2000/svg">
<path d="M448 127.31C448 127.31 418.95 69.14 354.79 60.52C290.63 51.9 245.79 93.91 198.61 115.46C173.89 126.74 145.61 122.36 119.4 127.82C35.45 145.28 3.82999 254.68 38.79 316.89C69.06 370.75 122.32 398.75 203.44 405.22C284.56 411.69 341.44 419.22 414.09 366.44C486.74 313.66 481.88 203.79 448 127.31Z" fill="url(#paint0_linear_14_2241)"/>
<path opacity="0.7" d="M448 127.31C448 127.31 418.95 69.14 354.79 60.52C290.63 51.9 245.79 93.91 198.61 115.46C173.89 126.74 145.61 122.36 119.4 127.82C35.45 145.28 3.82999 254.68 38.79 316.89C69.06 370.75 122.32 398.75 203.44 405.22C284.56 411.69 341.44 419.22 414.09 366.44C486.74 313.66 481.88 203.79 448 127.31Z" fill="white"/>
<path d="M434.78 383.65C438.24 363.76 471.1 325.71 461.59 302.36C452.08 279.01 428.72 353.36 420.07 354.25C411.42 355.14 419.21 320.52 431.32 287.66C443.43 254.8 452.94 220.2 431.32 207.23C409.7 194.26 410.56 297.17 405.37 293.71C400.18 290.25 408.83 247.01 402.78 220.2C396.73 193.39 382.89 215.01 382.89 246.2C382.89 277.39 392.4 294.63 385.48 297.2C378.56 299.77 357.33 290.1 357.81 324.01C358.29 357.92 384.62 398.39 375.1 393.2C365.58 388.01 348.29 368.12 351.75 400.12C354.2 422.74 371.75 444.48 381.85 455.29H428.09C435.14 448.04 448.84 432.76 458.09 414.82C471.1 389.71 431.32 403.55 434.78 383.65Z" fill="url(#paint1_linear_14_2241)"/>
<path d="M378.56 453.27C370 441 366 426 362 412C360 403 360 393 367 387C374 382 378 391 382 395C385 393 383 390 383 388C381.005 372.078 380.003 356.047 380 340C380 330 384 322 388 313C390 310 392 307 395 306C398 305 401 306 402 309C404 316 404 323 405 330C407 328 406 325 406 323C410 294 407 266 416 238C417 236 420 234 422 235C429 236 429 245 429 251C433 280 424 308 421 337C421 339 420 341 422 343C423 336 427 329 429 322C430 319 432 315 435 313C437 312 439 313 441 315C445 321 446 327 445 334C442 351 436 365 429 380L426 389C425 395 421 402 425 407C432 406 434 398 440 394C446 390 448 395 449 399C453 419 446 437 435.92 453.23" stroke="#1F1F1F" stroke-linecap="round" stroke-linejoin="round"/>
<path d="M406.57 449.45C406.57 449.45 404.24 402.72 410.08 360.09" stroke="#1F1F1F" stroke-linecap="round" stroke-linejoin="round"/>
<path d="M387.3 419.66L406.57 440.69L423.51 426.08" stroke="#1F1F1F" stroke-linecap="round" stroke-linejoin="round"/>
<path d="M401.31 367.1L406.57 393.96L421.76 367.1" stroke="#1F1F1F" stroke-linecap="round" stroke-linejoin="round"/>
<path d="M410.66 353.08L414.16 327.97" stroke="#1F1F1F" stroke-linecap="round" stroke-linejoin="round"/>
<path d="M133.85 148.31H70.87V227.04H133.85V148.31Z" stroke="#1F1F1F" stroke-linecap="round" stroke-linejoin="round"/>
<path d="M212.58 148.31H149.6V227.04H212.58V148.31Z" stroke="#1F1F1F" stroke-linecap="round" stroke-linejoin="round"/>
<path d="M133.85 239.92H70.87V318.65H133.85V239.92Z" stroke="#1F1F1F" stroke-linecap="round" stroke-linejoin="round"/>
<path d="M212.58 239.92H149.6V318.65H212.58V239.92Z" stroke="#1F1F1F" stroke-linecap="round" stroke-linejoin="round"/>
<path d="M133.85 331.53H70.87V410.26H133.85V331.53Z" stroke="#1F1F1F" stroke-linecap="round" stroke-linejoin="round"/>
<path d="M212.58 331.53H149.6V410.26H212.58V331.53Z" stroke="#1F1F1F" stroke-linecap="round" stroke-linejoin="round"/>
<path d="M142.44 66.72C123.838 66.72 105.997 74.1097 92.8435 87.2635C79.6897 100.417 72.3 118.258 72.3 136.86H212.58C212.58 118.258 205.19 100.417 192.036 87.2635C178.883 74.1097 161.042 66.72 142.44 66.72V66.72Z" stroke="#1F1F1F" stroke-linecap="round" stroke-linejoin="round"/>
<path d="M233.15 104.32C233.15 104.32 233.15 89.32 207.4 92.32C181.65 95.32 170.86 118.07 163.08 122.86C155.3 127.65 140.92 131.86 140.32 139.03C139.72 146.2 146.32 149.21 139.72 154.6C133.12 159.99 123 164.81 125.35 172C127.7 179.19 134.35 186.37 131.35 191.17C128.35 195.97 119.97 200.75 127.75 206.17C135.53 211.59 139.13 212.76 139.13 219.94C139.13 227.12 136.13 231.94 143.33 234.32C150.53 236.7 154.7 231.92 158.9 240.9C163.1 249.88 167.28 252.28 174.47 250.48C181.66 248.68 191.83 245.69 195.47 248.09C199.11 250.49 210.47 257.09 215.23 253.48C219.99 249.87 224.23 244.48 231.4 247.48C238.57 250.48 244.58 254.67 247.57 249.28C250.56 243.89 247.57 242.69 258.95 240.28C270.33 237.87 274.52 238.49 274.52 228.91C274.52 219.33 273.92 216.91 279.31 212.74C284.7 208.57 289.49 210.34 287.7 200.16C285.91 189.98 282.31 187.58 284.1 177.4C285.89 167.22 281.1 163.63 277.51 160.63C273.92 157.63 269.73 152.25 270.93 146.86C272.13 141.47 281.11 140.86 272.12 131.29C263.13 121.72 258.95 124.7 257.12 117.51C255.29 110.32 249.32 94.74 233.15 104.32Z" fill="#1F1F1F" stroke="#1F1F1F" stroke-linecap="round" stroke-linejoin="round"/>
<path d="M210.16 122.35C206.47 128.19 203.62 134.78 197.68 140.35C189.1 148.35 167.12 155.35 166.05 162.87C164.98 170.39 168.73 174.66 161.23 181.09C153.73 187.52 141.93 189.09 141.93 195.57C141.93 202.05 145.14 204.15 143.54 208.97" stroke="#1F1F1F" stroke-miterlimit="10"/>
<path d="M226.1 115.15C226.1 115.15 223.42 108.15 215.91 115.15C215.33 115.69 214.78 116.25 214.26 116.82" stroke="#1F1F1F" stroke-miterlimit="10"/>
<path d="M165.54 145.79C158.94 147.39 153.73 148.54 153.19 153.22C152.11 162.33 153.72 168.22 147.29 170.91C140.86 173.6 132.29 177.91 134.96 183.24C137.63 188.57 138.17 190.24 137.64 192.35" stroke="#1F1F1F" stroke-miterlimit="10"/>
<path d="M225 106.57C225 106.57 210 96.9301 202 105.5C194 114.07 197.71 124.8 185.38 136.6C182.249 139.516 178.552 141.759 174.52 143.19" stroke="#1F1F1F" stroke-miterlimit="10"/>
<path d="M277.17 182.6C278.07 183.997 279.313 185.14 280.78 185.92" stroke="#1F1F1F" stroke-miterlimit="10"/>
<path d="M235.75 120C235.75 120 249.15 115.71 252.36 123.21C255.57 130.71 257.19 144.12 263.09 146.27C268.99 148.42 271.66 151.63 271.66 163.42C271.653 167.22 272.219 170.999 273.34 174.63" stroke="#1F1F1F" stroke-miterlimit="10"/>
<path d="M148.9 215.4C153.19 208.4 159.08 211.12 159.62 203.61C160.16 196.1 155.87 193.96 160.15 189.14C164.43 184.32 171.41 182.14 171.41 182.14" stroke="#1F1F1F" stroke-miterlimit="10"/>
<path d="M154.79 230.42C152.809 228.78 151.09 226.848 149.69 224.69" stroke="#1F1F1F" stroke-miterlimit="10"/>
<path d="M303.22 455.26C303.22 455.26 305.01 430.71 294.22 406.15C283.43 381.59 281 379.82 281 372.63C281 365.44 288.22 357.05 289.42 340.88C290.62 324.71 290.02 316.88 290.02 316.88C290.02 316.88 315.77 357.6 333.74 360C351.71 362.4 362.49 345.63 355.9 322.87C349.31 300.11 320.56 281.55 309.19 266.57C297.82 251.59 272.05 251.57 258.88 251.57C245.71 251.57 239.12 246.78 236.72 237.8C234.32 228.82 234.33 210.8 234.33 210.8C234.33 210.8 218.75 220.38 192.4 209.6C192.4 209.6 194.8 242.54 191.8 247.33C188.8 252.12 184.64 257 166.67 257C148.7 257 133.73 260.6 125.35 269C116.97 277.4 82.23 310.92 73.25 324.1C64.27 337.28 69.05 351.65 79.83 357.04C90.61 362.43 101.39 357.63 109.18 350.45C116.97 343.27 141.52 320.5 141.52 320.5C141.52 320.5 141.52 334.28 148.11 354.04C154.7 373.8 160.11 371.41 155.29 385.78C150.47 400.15 140.92 404.35 137.93 422.91C136.139 433.594 135.336 444.419 135.53 455.25" fill="url(#paint2_linear_14_2241)"/>
<g opacity="0.2">
<path opacity="0.2" d="M263.92 270.35C263.51 270.35 262.01 271.35 263.92 274.26C265.83 271.37 264.33 270.35 263.92 270.35Z" fill="#1F1F1F"/>
<path opacity="0.2" d="M311.92 270.35C311.51 270.35 310.01 271.35 311.92 274.26C313.83 271.37 312.33 270.35 311.92 270.35Z" fill="#1F1F1F"/>
<path opacity="0.2" d="M311.92 294.35C311.51 294.35 310.01 295.35 311.92 298.26C313.83 295.37 312.33 294.35 311.92 294.35Z" fill="#1F1F1F"/>
<path opacity="0.2" d="M263.92 294.35C263.51 294.35 262.01 295.35 263.92 298.26C265.83 295.37 264.33 294.35 263.92 294.35Z" fill="#1F1F1F"/>
<path opacity="0.2" d="M287.92 282.35C287.51 282.35 286.01 283.35 287.92 286.26C289.83 283.37 288.33 282.35 287.92 282.35Z" fill="#1F1F1F"/>
<path opacity="0.2" d="M287.92 258.35C287.51 258.35 286.01 259.35 287.92 262.26C289.83 259.37 288.33 258.35 287.92 258.35Z" fill="#1F1F1F"/>
<path opacity="0.2" d="M265 274.86C268.46 275.05 268.58 273.24 268.38 272.86C268.18 272.48 266.49 271.75 265 274.86Z" fill="#1F1F1F"/>
<path opacity="0.2" d="M315.93 274.17L314.6 272.8C313.87 273.318 313.302 274.033 312.96 274.86C314.002 275.031 315.07 274.783 315.93 274.17Z" fill="#1F1F1F"/>
<path opacity="0.2" d="M289 286.86C292.46 287.05 292.58 285.24 292.38 284.86C292.18 284.48 290.49 283.75 289 286.86Z" fill="#1F1F1F"/>
<path opacity="0.2" d="M289 262.86C292.46 263.05 292.58 261.24 292.38 260.86C292.18 260.48 290.49 259.75 289 262.86Z" fill="#1F1F1F"/>
<path opacity="0.2" d="M307.5 272.89C307.3 273.24 307.43 275.05 310.88 274.89C309.35 271.75 307.71 272.53 307.5 272.89Z" fill="#1F1F1F"/>
<path opacity="0.2" d="M307.5 296.89C307.43 297.144 307.442 297.414 307.536 297.66C307.629 297.906 307.799 298.117 308.02 298.26C308.871 298.796 309.886 299.009 310.88 298.86C310.786 298.654 310.679 298.453 310.56 298.26C309.13 295.86 307.7 296.55 307.5 296.89Z" fill="#1F1F1F"/>
<path opacity="0.2" d="M283.5 284.89C283.3 285.24 283.43 287.05 286.88 286.89C285.35 283.75 283.71 284.53 283.5 284.89Z" fill="#1F1F1F"/>
<path opacity="0.2" d="M283.5 260.89C283.3 261.24 283.43 263.05 286.88 262.89C285.35 259.75 283.71 260.53 283.5 260.89Z" fill="#1F1F1F"/>
<path opacity="0.2" d="M263.92 342.35C263.51 342.35 262.01 343.35 263.92 346.26C265.83 343.37 264.33 342.35 263.92 342.35Z" fill="#1F1F1F"/>
<path opacity="0.2" d="M311.92 342.35C311.62 342.35 310.76 342.89 311.03 344.28C311.45 344.73 311.87 345.18 312.3 345.62C313.6 343.22 312.3 342.35 311.92 342.35Z" fill="#1F1F1F"/>
<path opacity="0.2" d="M263.92 366.35C263.51 366.35 262.01 367.35 263.92 370.26C265.83 367.37 264.33 366.35 263.92 366.35Z" fill="#1F1F1F"/>
<path opacity="0.2" d="M335.92 354.35C335.51 354.35 334.01 355.35 335.92 358.26C337.83 355.37 336.33 354.35 335.92 354.35Z" fill="#1F1F1F"/>
<path opacity="0.2" d="M263.92 318.35C263.51 318.35 262.01 319.35 263.92 322.26C265.83 319.37 264.33 318.35 263.92 318.35Z" fill="#1F1F1F"/>
<path opacity="0.2" d="M311.92 318.35C311.51 318.35 310.01 319.35 311.92 322.26C313.83 319.37 312.33 318.35 311.92 318.35Z" fill="#1F1F1F"/>
<path opacity="0.2" d="M287.92 330.35C287.51 330.35 286.01 331.35 287.92 334.26C289.83 331.37 288.33 330.35 287.92 330.35Z" fill="#1F1F1F"/>
<path opacity="0.2" d="M335.92 330.35C335.51 330.35 334.01 331.35 335.92 334.26C337.83 331.37 336.33 330.35 335.92 330.35Z" fill="#1F1F1F"/>
<path opacity="0.2" d="M287.92 306.35C287.51 306.35 286.01 307.35 287.92 310.26C289.83 307.37 288.33 306.35 287.92 306.35Z" fill="#1F1F1F"/>
<path opacity="0.2" d="M335.92 306.35C335.51 306.35 334.01 307.35 335.92 310.26C337.83 307.37 336.33 306.35 335.92 306.35Z" fill="#1F1F1F"/>
<path opacity="0.2" d="M265 346.86C268.46 347.05 268.58 345.24 268.38 344.86C268.18 344.48 266.49 343.75 265 346.86Z" fill="#1F1F1F"/>
<path opacity="0.2" d="M313.15 346.5L313.51 346.87C316.42 346.87 316.51 345.22 316.34 344.87C316.17 344.52 314.62 343.82 313.15 346.5Z" fill="#1F1F1F"/>
<path opacity="0.2" d="M267.58 368.53C267.143 368.521 266.717 368.67 266.38 368.95C266.176 369.111 265.989 369.292 265.82 369.49C265.619 369.731 265.438 369.989 265.28 370.26C265.283 370.28 265.283 370.3 265.28 370.32C265.19 370.48 265.09 370.66 265 370.86C265.994 371.011 267.01 370.798 267.86 370.26C267.931 370.205 267.998 370.145 268.06 370.08C268.16 369.972 268.244 369.851 268.31 369.72C268.408 369.605 268.467 369.463 268.48 369.313C268.494 369.163 268.46 369.012 268.385 368.882C268.309 368.751 268.195 368.647 268.058 368.585C267.921 368.522 267.768 368.503 267.62 368.53H267.58Z" fill="#1F1F1F"/>
<path opacity="0.2" d="M337 358.86C340.45 359.05 340.58 357.24 340.38 356.86C340.18 356.48 338.49 355.75 337 358.86Z" fill="#1F1F1F"/>
<path opacity="0.2" d="M265 322.86C268.46 323.05 268.58 321.24 268.38 320.86C268.18 320.48 266.49 319.75 265 322.86Z" fill="#1F1F1F"/>
<path opacity="0.2" d="M316.34 320.89C316.13 320.53 314.49 319.75 312.96 322.89C316.41 323.05 316.54 321.24 316.34 320.89Z" fill="#1F1F1F"/>
<path opacity="0.2" d="M289 334.86C289.29 334.875 289.58 334.875 289.87 334.86C289.87 334.36 289.92 333.86 289.94 333.4C289.561 333.841 289.245 334.333 289 334.86Z" fill="#1F1F1F"/>
<path opacity="0.2" d="M337 334.86C340.45 335.05 340.58 333.24 340.38 332.86C340.18 332.48 338.49 331.75 337 334.86Z" fill="#1F1F1F"/>
<path opacity="0.2" d="M289 310.86C292.46 311.05 292.58 309.24 292.38 308.86C292.18 308.48 290.49 307.75 289 310.86Z" fill="#1F1F1F"/>
<path opacity="0.2" d="M337 310.86C340.45 311.05 340.58 309.24 340.38 308.86C340.18 308.48 338.49 307.75 337 310.86Z" fill="#1F1F1F"/>
<path opacity="0.2" d="M285.29 358.78L285.84 357.29C284.68 356.09 283.66 356.61 283.5 356.89C283.34 357.17 283.39 358.43 285.29 358.78Z" fill="#1F1F1F"/>
<path opacity="0.2" d="M355.5 344.89C355.425 345.176 355.451 345.479 355.573 345.749C355.695 346.018 355.906 346.238 356.17 346.37C356.38 345.79 356.56 345.19 356.73 344.58C356.517 344.508 356.287 344.499 356.069 344.554C355.851 344.609 355.654 344.726 355.5 344.89Z" fill="#1F1F1F"/>
<path opacity="0.2" d="M331.5 356.89C331.29 357.24 331.43 359.05 334.88 358.89C333.35 355.75 331.71 356.53 331.5 356.89Z" fill="#1F1F1F"/>
<path opacity="0.2" d="M307.5 320.89C307.3 321.24 307.43 323.05 310.88 322.89C309.35 319.75 307.71 320.53 307.5 320.89Z" fill="#1F1F1F"/>
<path opacity="0.2" d="M283.5 332.89C283.3 333.24 283.43 335.05 286.88 334.89C285.35 331.75 283.71 332.53 283.5 332.89Z" fill="#1F1F1F"/>
<path opacity="0.2" d="M331.5 332.89C331.29 333.24 331.43 335.05 334.88 334.89C333.35 331.75 331.71 332.53 331.5 332.89Z" fill="#1F1F1F"/>
<path opacity="0.2" d="M283.5 308.89C283.3 309.24 283.43 311.05 286.88 310.89C285.35 307.75 283.71 308.53 283.5 308.89Z" fill="#1F1F1F"/>
<path opacity="0.2" d="M331.5 308.89C331.29 309.24 331.43 311.05 334.88 310.89C333.35 307.75 331.71 308.53 331.5 308.89Z" fill="#1F1F1F"/>
<path opacity="0.2" d="M315.82 298.26C316.041 298.117 316.211 297.906 316.304 297.66C316.398 297.414 316.41 297.144 316.34 296.89C316.14 296.55 314.71 295.89 313.28 298.26C313.161 298.453 313.054 298.654 312.96 298.86C313.954 299.011 314.97 298.798 315.82 298.26Z" fill="#1F1F1F"/>
<path opacity="0.2" d="M267.82 298.26C268.041 298.117 268.211 297.906 268.304 297.66C268.398 297.414 268.41 297.144 268.34 296.89C268.14 296.55 266.71 295.89 265.28 298.26C265.161 298.453 265.054 298.654 264.96 298.86C265.954 299.011 266.97 298.798 267.82 298.26Z" fill="#1F1F1F"/>
<path opacity="0.2" d="M263.92 414.35C263.51 414.35 262.01 415.35 263.92 418.26C265.83 415.37 264.33 414.35 263.92 414.35Z" fill="#1F1F1F"/>
<path opacity="0.2" d="M263.92 438.35C263.51 438.35 262.01 439.35 263.92 442.26C265.83 439.37 264.33 438.35 263.92 438.35Z" fill="#1F1F1F"/>
<path opacity="0.2" d="M287.92 426.35C287.51 426.35 286.01 427.35 287.92 430.26C289.83 427.37 288.33 426.35 287.92 426.35Z" fill="#1F1F1F"/>
<path opacity="0.2" d="M263.92 390.35C263.51 390.35 262.01 391.35 263.92 394.26C265.83 391.37 264.33 390.35 263.92 390.35Z" fill="#1F1F1F"/>
<path opacity="0.2" d="M287.92 402.35C287.51 402.35 286.01 403.35 287.92 406.26C289.83 403.37 288.33 402.35 287.92 402.35Z" fill="#1F1F1F"/>
<path opacity="0.2" d="M265 418.86C268.46 419.05 268.58 417.24 268.38 416.86C268.18 416.48 266.49 415.75 265 418.86Z" fill="#1F1F1F"/>
<path opacity="0.2" d="M267.58 440.53H267.37C267.112 440.549 266.862 440.628 266.64 440.76L266.38 440.94C265.935 441.304 265.562 441.749 265.28 442.25C265.161 442.443 265.054 442.644 264.96 442.85C265.954 443.001 266.97 442.788 267.82 442.25C268.041 442.107 268.211 441.896 268.304 441.65C268.398 441.404 268.41 441.134 268.34 440.88C268.246 440.77 268.13 440.682 267.998 440.622C267.867 440.561 267.724 440.53 267.58 440.53Z" fill="#1F1F1F"/>
<path opacity="0.2" d="M289 430.86C292.46 431.05 292.58 429.24 292.38 428.86C292.18 428.48 290.49 427.75 289 430.86Z" fill="#1F1F1F"/>
<path opacity="0.2" d="M265 394.86C268.46 395.05 268.58 393.24 268.38 392.86C268.18 392.48 266.49 391.75 265 394.86Z" fill="#1F1F1F"/>
<path opacity="0.2" d="M289 406.86C292.46 407.05 292.58 405.24 292.38 404.86C292.18 404.48 290.49 403.75 289 406.86Z" fill="#1F1F1F"/>
<path opacity="0.2" d="M283.5 428.89C283.3 429.24 283.43 431.05 286.88 430.89C285.35 427.75 283.71 428.53 283.5 428.89Z" fill="#1F1F1F"/>
<path opacity="0.2" d="M283.5 404.89C283.3 405.24 283.43 407.05 286.88 406.89C285.35 403.75 283.71 404.53 283.5 404.89Z" fill="#1F1F1F"/>
<path opacity="0.2" d="M287.92 450.35C287.51 450.35 286.01 451.35 287.92 454.26C289.83 451.37 288.33 450.35 287.92 450.35Z" fill="#1F1F1F"/>
<path opacity="0.2" d="M289 454.86C292.46 455.05 292.58 453.24 292.38 452.86C292.18 452.48 290.49 451.75 289 454.86Z" fill="#1F1F1F"/>
<path opacity="0.2" d="M283.5 452.89C283.3 453.24 283.43 455.05 286.88 454.89C285.35 451.75 283.71 452.53 283.5 452.89Z" fill="#1F1F1F"/>
<path opacity="0.2" d="M215.92 222.35C215.51 222.35 214.01 223.35 215.92 226.26C217.83 223.37 216.33 222.35 215.92 222.35Z" fill="#1F1F1F"/>
<path opacity="0.2" d="M192.49 210.68C192.49 211.22 192.57 211.97 192.63 212.91C192.82 212.563 192.908 212.17 192.883 211.775C192.858 211.38 192.722 211 192.49 210.68Z" fill="#1F1F1F"/>
<path opacity="0.2" d="M219.58 224.53C219.143 224.521 218.717 224.67 218.38 224.95C218.176 225.111 217.989 225.292 217.82 225.49C217.619 225.731 217.438 225.989 217.28 226.26V226.32C217.19 226.48 217.09 226.66 217 226.86C217.994 227.011 219.01 226.798 219.86 226.26C219.931 226.205 219.998 226.145 220.06 226.08C220.16 225.972 220.244 225.851 220.31 225.72C220.381 225.595 220.423 225.456 220.436 225.313C220.448 225.169 220.429 225.025 220.38 224.89C220.283 224.773 220.16 224.68 220.022 224.618C219.883 224.555 219.732 224.525 219.58 224.53Z" fill="#1F1F1F"/>
<path opacity="0.2" d="M193 214.86C196.46 215.05 196.58 213.24 196.38 212.86C196.18 212.48 194.49 211.75 193 214.86Z" fill="#1F1F1F"/>
<path opacity="0.2" d="M168.84 271.46C168.822 271.307 168.778 271.158 168.71 271.02C168.681 270.958 168.648 270.898 168.61 270.84C168.546 270.743 168.469 270.655 168.38 270.58C168.308 270.518 168.227 270.468 168.14 270.43C168.078 270.398 168.01 270.381 167.94 270.381C167.87 270.381 167.802 270.398 167.74 270.43C167.28 270.63 166.53 271.43 167.37 273.29C167.536 273.636 167.727 273.97 167.94 274.29C168.153 273.97 168.344 273.636 168.51 273.29C168.746 272.821 168.876 272.305 168.89 271.78C168.895 271.687 168.895 271.593 168.89 271.5L168.84 271.46Z" fill="#1F1F1F"/>
<path opacity="0.2" d="M215.92 270.35C215.51 270.35 214.01 271.35 215.92 274.26C217.83 271.37 216.33 270.35 215.92 270.35Z" fill="#1F1F1F"/>
<path opacity="0.2" d="M215.92 294.35C215.51 294.35 214.01 295.35 215.92 298.26C217.83 295.37 216.33 294.35 215.92 294.35Z" fill="#1F1F1F"/>
<path opacity="0.2" d="M168.84 295.46C168.822 295.307 168.778 295.158 168.71 295.02C168.681 294.958 168.648 294.898 168.61 294.84C168.546 294.743 168.469 294.655 168.38 294.58C168.308 294.518 168.227 294.468 168.14 294.43C168.078 294.398 168.01 294.381 167.94 294.381C167.87 294.381 167.802 294.398 167.74 294.43C167.28 294.63 166.53 295.43 167.37 297.29C167.536 297.636 167.727 297.97 167.94 298.29C168.153 297.97 168.344 297.636 168.51 297.29C168.746 296.821 168.876 296.305 168.89 295.78C168.895 295.687 168.895 295.593 168.89 295.5L168.84 295.46Z" fill="#1F1F1F"/>
<path opacity="0.2" d="M191.92 282.35C191.51 282.35 190.01 283.35 191.92 286.26C193.83 283.37 192.33 282.35 191.92 282.35Z" fill="#1F1F1F"/>
<path opacity="0.2" d="M239.92 282.35C239.51 282.35 238.01 283.35 239.92 286.26C241.83 283.37 240.33 282.35 239.92 282.35Z" fill="#1F1F1F"/>
<path opacity="0.2" d="M215.92 246.35C215.51 246.35 214.01 247.35 215.92 250.26C217.83 247.37 216.33 246.35 215.92 246.35Z" fill="#1F1F1F"/>
<path opacity="0.2" d="M191.92 258.35C191.51 258.35 190.01 259.35 191.92 262.26C193.83 259.37 192.33 258.35 191.92 258.35Z" fill="#1F1F1F"/>
<path opacity="0.2" d="M239.92 258.35C239.51 258.35 238.01 259.35 239.92 262.26C241.83 259.37 240.33 258.35 239.92 258.35Z" fill="#1F1F1F"/>
<path opacity="0.2" d="M169 274.86C172.46 275.05 172.58 273.24 172.38 272.86C172.18 272.48 170.49 271.75 169 274.86Z" fill="#1F1F1F"/>
<path opacity="0.2" d="M217 274.86C220.45 275.05 220.58 273.24 220.38 272.86C220.18 272.48 218.49 271.75 217 274.86Z" fill="#1F1F1F"/>
<path opacity="0.2" d="M193 286.86C196.46 287.05 196.58 285.24 196.38 284.86C196.18 284.48 194.49 283.75 193 286.86Z" fill="#1F1F1F"/>
<path opacity="0.2" d="M241 286.86C244.45 287.05 244.58 285.24 244.38 284.86C244.18 284.48 242.49 283.75 241 286.86Z" fill="#1F1F1F"/>
<path opacity="0.2" d="M217 250.86C220.45 251.05 220.58 249.24 220.38 248.86C220.18 248.48 218.49 247.75 217 250.86Z" fill="#1F1F1F"/>
<path opacity="0.2" d="M193 262.86C196.46 263.05 196.58 261.24 196.38 260.86C196.18 260.48 194.49 259.75 193 262.86Z" fill="#1F1F1F"/>
<path opacity="0.2" d="M241 262.86C244.45 263.05 244.58 261.24 244.38 260.86C244.18 260.48 242.49 259.75 241 262.86Z" fill="#1F1F1F"/>
<path opacity="0.2" d="M196.34 236.89C196.14 236.55 194.68 235.89 193.23 238.34C193.23 238.52 193.23 238.69 193.23 238.86C196.41 239 196.54 237.23 196.34 236.89Z" fill="#1F1F1F"/>
<path opacity="0.2" d="M211.5 272.89C211.3 273.24 211.43 275.05 214.88 274.89C213.35 271.75 211.71 272.53 211.5 272.89Z" fill="#1F1F1F"/>
<path opacity="0.2" d="M211.5 296.89C211.43 297.144 211.442 297.414 211.536 297.66C211.629 297.906 211.799 298.117 212.02 298.26C212.871 298.796 213.886 299.009 214.88 298.86C214.786 298.654 214.679 298.453 214.56 298.26C213.13 295.86 211.7 296.55 211.5 296.89Z" fill="#1F1F1F"/>
<path opacity="0.2" d="M187.5 284.89C187.3 285.24 187.43 287.05 190.88 286.89C189.35 283.75 187.71 284.53 187.5 284.89Z" fill="#1F1F1F"/>
<path opacity="0.2" d="M259.5 272.89C259.29 273.24 259.43 275.05 262.88 274.89C261.35 271.75 259.71 272.53 259.5 272.89Z" fill="#1F1F1F"/>
<path opacity="0.2" d="M262.56 298.26C261.13 295.86 259.7 296.55 259.5 296.89C259.43 297.144 259.442 297.414 259.536 297.66C259.629 297.906 259.799 298.117 260.02 298.26C260.87 298.798 261.886 299.011 262.88 298.86C262.786 298.654 262.679 298.453 262.56 298.26Z" fill="#1F1F1F"/>
<path opacity="0.2" d="M235.5 284.89C235.29 285.24 235.43 287.05 238.88 286.89C237.35 283.75 235.71 284.53 235.5 284.89Z" fill="#1F1F1F"/>
<path opacity="0.2" d="M211.5 248.89C211.3 249.24 211.43 251.05 214.88 250.89C213.35 247.75 211.71 248.53 211.5 248.89Z" fill="#1F1F1F"/>
<path opacity="0.2" d="M187.5 260.89C187.3 261.24 187.43 263.05 190.88 262.89C189.35 259.75 187.71 260.53 187.5 260.89Z" fill="#1F1F1F"/>
<path opacity="0.2" d="M235.5 260.89C235.29 261.24 235.43 263.05 238.88 262.89C237.35 259.75 235.71 260.53 235.5 260.89Z" fill="#1F1F1F"/>
<path opacity="0.2" d="M237 238.71C236.91 238.43 236.82 238.16 236.74 237.87C236.66 237.58 236.52 237 236.42 236.53C236.249 236.511 236.076 236.534 235.916 236.596C235.755 236.659 235.613 236.76 235.5 236.89C235.34 237.16 235.39 238.3 237 238.71Z" fill="#1F1F1F"/>
<path opacity="0.2" d="M214.56 226.26C214.402 225.989 214.221 225.731 214.02 225.49C213.854 225.29 213.666 225.109 213.46 224.95C213.124 224.67 212.697 224.521 212.26 224.53C212.115 224.531 211.972 224.564 211.84 224.626C211.709 224.688 211.593 224.778 211.5 224.89C211.451 225.025 211.432 225.169 211.444 225.313C211.457 225.456 211.499 225.595 211.57 225.72C211.636 225.851 211.72 225.972 211.82 226.08L212.02 226.26C212.871 226.796 213.886 227.009 214.88 226.86C214.79 226.66 214.69 226.48 214.6 226.32L214.56 226.26Z" fill="#1F1F1F"/>
<path opacity="0.2" d="M168.84 343.46C168.822 343.307 168.778 343.158 168.71 343.02C168.681 342.958 168.648 342.898 168.61 342.84C168.546 342.743 168.469 342.655 168.38 342.58C168.308 342.518 168.227 342.468 168.14 342.43C168.078 342.398 168.01 342.381 167.94 342.381C167.87 342.381 167.802 342.398 167.74 342.43C167.28 342.63 166.53 343.43 167.37 345.29C167.536 345.636 167.727 345.97 167.94 346.29C168.153 345.97 168.344 345.636 168.51 345.29C168.746 344.821 168.876 344.305 168.89 343.78C168.895 343.687 168.895 343.593 168.89 343.5L168.84 343.46Z" fill="#1F1F1F"/>
<path opacity="0.2" d="M215.92 342.35C215.51 342.35 214.01 343.35 215.92 346.26C217.83 343.37 216.33 342.35 215.92 342.35Z" fill="#1F1F1F"/>
<path opacity="0.2" d="M215.92 366.35C215.51 366.35 214.01 367.35 215.92 370.26C217.83 367.37 216.33 366.35 215.92 366.35Z" fill="#1F1F1F"/>
<path opacity="0.2" d="M168.84 367.46C168.822 367.307 168.778 367.158 168.71 367.02C168.681 366.958 168.648 366.898 168.61 366.84C168.546 366.743 168.469 366.655 168.38 366.58C168.308 366.518 168.227 366.468 168.14 366.43C168.079 366.397 168.01 366.379 167.94 366.379C167.87 366.379 167.801 366.397 167.74 366.43C167.28 366.63 166.53 367.43 167.37 369.29C167.536 369.636 167.727 369.97 167.94 370.29C168.153 369.97 168.344 369.636 168.51 369.29C168.746 368.821 168.876 368.305 168.89 367.78C168.895 367.687 168.895 367.593 168.89 367.5L168.84 367.46Z" fill="#1F1F1F"/>
<path opacity="0.2" d="M191.92 354.35C191.51 354.35 190.01 355.35 191.92 358.26C193.83 355.37 192.33 354.35 191.92 354.35Z" fill="#1F1F1F"/>
<path opacity="0.2" d="M239.92 354.35C239.51 354.35 238.01 355.35 239.92 358.26C241.83 355.37 240.33 354.35 239.92 354.35Z" fill="#1F1F1F"/>
<path opacity="0.2" d="M168.84 319.46C168.822 319.307 168.778 319.158 168.71 319.02C168.681 318.958 168.648 318.898 168.61 318.84C168.546 318.743 168.469 318.655 168.38 318.58C168.308 318.518 168.227 318.468 168.14 318.43C168.078 318.398 168.01 318.381 167.94 318.381C167.87 318.381 167.802 318.398 167.74 318.43C167.28 318.63 166.53 319.43 167.37 321.29C167.536 321.636 167.727 321.97 167.94 322.29C168.153 321.97 168.344 321.636 168.51 321.29C168.746 320.821 168.876 320.305 168.89 319.78C168.895 319.687 168.895 319.593 168.89 319.5L168.84 319.46Z" fill="#1F1F1F"/>
<path opacity="0.2" d="M215.92 318.35C215.51 318.35 214.01 319.35 215.92 322.26C217.83 319.37 216.33 318.35 215.92 318.35Z" fill="#1F1F1F"/>
<path opacity="0.2" d="M191.92 330.35C191.51 330.35 190.01 331.35 191.92 334.26C193.83 331.37 192.33 330.35 191.92 330.35Z" fill="#1F1F1F"/>
<path opacity="0.2" d="M239.92 330.35C239.51 330.35 238.01 331.35 239.92 334.26C241.83 331.37 240.33 330.35 239.92 330.35Z" fill="#1F1F1F"/>
<path opacity="0.2" d="M191.92 306.35C191.51 306.35 190.01 307.35 191.92 310.26C193.83 307.37 192.33 306.35 191.92 306.35Z" fill="#1F1F1F"/>
<path opacity="0.2" d="M239.92 306.35C239.51 306.35 238.01 307.35 239.92 310.26C241.83 307.37 240.33 306.35 239.92 306.35Z" fill="#1F1F1F"/>
<path opacity="0.2" d="M169 346.86C172.46 347.05 172.58 345.24 172.38 344.86C172.18 344.48 170.49 343.75 169 346.86Z" fill="#1F1F1F"/>
<path opacity="0.2" d="M217 346.86C220.45 347.05 220.58 345.24 220.38 344.86C220.18 344.48 218.49 343.75 217 346.86Z" fill="#1F1F1F"/>
<path opacity="0.2" d="M219.58 368.53C219.143 368.521 218.717 368.67 218.38 368.95C218.176 369.111 217.989 369.292 217.82 369.49C217.619 369.731 217.438 369.989 217.28 370.26V370.32C217.19 370.48 217.09 370.66 217 370.86C217.994 371.011 219.01 370.798 219.86 370.26C219.931 370.205 219.998 370.145 220.06 370.08C220.16 369.972 220.244 369.851 220.31 369.72C220.381 369.595 220.423 369.456 220.436 369.313C220.448 369.169 220.429 369.025 220.38 368.89C220.283 368.773 220.16 368.68 220.022 368.618C219.883 368.555 219.732 368.525 219.58 368.53Z" fill="#1F1F1F"/>
<path opacity="0.2" d="M171.58 368.53C171.143 368.521 170.717 368.67 170.38 368.95C170.176 369.111 169.989 369.292 169.82 369.49C169.619 369.731 169.438 369.989 169.28 370.26V370.32C169.19 370.48 169.09 370.66 169 370.86C169.994 371.011 171.01 370.798 171.86 370.26C171.931 370.205 171.998 370.145 172.06 370.08C172.16 369.972 172.244 369.851 172.31 369.72C172.408 369.605 172.467 369.463 172.48 369.313C172.494 369.163 172.46 369.012 172.385 368.882C172.309 368.751 172.195 368.647 172.058 368.585C171.921 368.522 171.768 368.503 171.62 368.53H171.58Z" fill="#1F1F1F"/>
<path opacity="0.2" d="M193 358.86C196.46 359.05 196.58 357.24 196.38 356.86C196.18 356.48 194.49 355.75 193 358.86Z" fill="#1F1F1F"/>
<path opacity="0.2" d="M241 358.86C244.45 359.05 244.58 357.24 244.38 356.86C244.18 356.48 242.49 355.75 241 358.86Z" fill="#1F1F1F"/>
<path opacity="0.2" d="M169 322.86C172.46 323.05 172.58 321.24 172.38 320.86C172.18 320.48 170.49 319.75 169 322.86Z" fill="#1F1F1F"/>
<path opacity="0.2" d="M217 322.86C220.45 323.05 220.58 321.24 220.38 320.86C220.18 320.48 218.49 319.75 217 322.86Z" fill="#1F1F1F"/>
<path opacity="0.2" d="M193 334.86C196.46 335.05 196.58 333.24 196.38 332.86C196.18 332.48 194.49 331.75 193 334.86Z" fill="#1F1F1F"/>
<path opacity="0.2" d="M241 334.86C244.45 335.05 244.58 333.24 244.38 332.86C244.18 332.48 242.49 331.75 241 334.86Z" fill="#1F1F1F"/>
<path opacity="0.2" d="M193 310.86C196.46 311.05 196.58 309.24 196.38 308.86C196.18 308.48 194.49 307.75 193 310.86Z" fill="#1F1F1F"/>
<path opacity="0.2" d="M241 310.86C244.45 311.05 244.58 309.24 244.38 308.86C244.18 308.48 242.49 307.75 241 310.86Z" fill="#1F1F1F"/>
<path opacity="0.2" d="M211.5 344.89C211.3 345.24 211.43 347.05 214.88 346.89C213.35 343.75 211.71 344.53 211.5 344.89Z" fill="#1F1F1F"/>
<path opacity="0.2" d="M187.5 356.89C187.3 357.24 187.43 359.05 190.88 358.89C189.35 355.75 187.71 356.53 187.5 356.89Z" fill="#1F1F1F"/>
<path opacity="0.2" d="M259.5 344.89C259.29 345.24 259.43 347.05 262.88 346.89C261.35 343.75 259.71 344.53 259.5 344.89Z" fill="#1F1F1F"/>
<path opacity="0.2" d="M235.5 356.89C235.29 357.24 235.43 359.05 238.88 358.89C237.35 355.75 235.71 356.53 235.5 356.89Z" fill="#1F1F1F"/>
<path opacity="0.2" d="M173.59 373.26C173.59 373.26 199.59 379.93 232.25 354.6C264.91 329.27 277.59 339.26 276.25 357.26C274.91 375.26 246.92 391.93 234.92 393.93C215.19 397.22 197.59 402.6 173.59 373.26Z" fill="#1F1F1F"/>
<path opacity="0.2" d="M211.5 320.89C211.3 321.24 211.43 323.05 214.88 322.89C213.35 319.75 211.71 320.53 211.5 320.89Z" fill="#1F1F1F"/>
<path opacity="0.2" d="M187.5 332.89C187.3 333.24 187.43 335.05 190.88 334.89C189.35 331.75 187.71 332.53 187.5 332.89Z" fill="#1F1F1F"/>
<path opacity="0.2" d="M259.5 320.89C259.29 321.24 259.43 323.05 262.88 322.89C261.35 319.75 259.71 320.53 259.5 320.89Z" fill="#1F1F1F"/>
<path opacity="0.2" d="M235.5 332.89C235.29 333.24 235.43 335.05 238.88 334.89C237.35 331.75 235.71 332.53 235.5 332.89Z" fill="#1F1F1F"/>
<path opacity="0.2" d="M187.5 308.89C187.3 309.24 187.43 311.05 190.88 310.89C189.35 307.75 187.71 308.53 187.5 308.89Z" fill="#1F1F1F"/>
<path opacity="0.2" d="M235.5 308.89C235.29 309.24 235.43 311.05 238.88 310.89C237.35 307.75 235.71 308.53 235.5 308.89Z" fill="#1F1F1F"/>
<path opacity="0.2" d="M219.82 298.26C220.041 298.117 220.211 297.906 220.304 297.66C220.398 297.414 220.41 297.144 220.34 296.89C220.14 296.55 218.71 295.89 217.28 298.26C217.161 298.453 217.054 298.654 216.96 298.86C217.954 299.011 218.97 298.798 219.82 298.26Z" fill="#1F1F1F"/>
<path opacity="0.2" d="M171.82 298.26C172.041 298.117 172.211 297.906 172.304 297.66C172.398 297.414 172.41 297.144 172.34 296.89C172.14 296.55 170.71 295.89 169.28 298.26C169.161 298.453 169.054 298.654 168.96 298.86C169.954 299.011 170.97 298.798 171.82 298.26Z" fill="#1F1F1F"/>
<path opacity="0.2" d="M168.84 415.46C168.822 415.307 168.778 415.158 168.71 415.02C168.681 414.958 168.648 414.898 168.61 414.84C168.546 414.743 168.469 414.655 168.38 414.58C168.308 414.518 168.227 414.468 168.14 414.43C168.079 414.397 168.01 414.379 167.94 414.379C167.87 414.379 167.801 414.397 167.74 414.43C167.28 414.63 166.53 415.43 167.37 417.29C167.536 417.636 167.727 417.97 167.94 418.29C168.153 417.97 168.344 417.636 168.51 417.29C168.746 416.821 168.876 416.305 168.89 415.78C168.895 415.687 168.895 415.593 168.89 415.5L168.84 415.46Z" fill="#1F1F1F"/>
<path opacity="0.2" d="M215.92 414.35C215.51 414.35 214.01 415.35 215.92 418.26C217.83 415.37 216.33 414.35 215.92 414.35Z" fill="#1F1F1F"/>
<path opacity="0.2" d="M215.92 438.35C215.51 438.35 214.01 439.35 215.92 442.26C217.83 439.37 216.33 438.35 215.92 438.35Z" fill="#1F1F1F"/>
<path opacity="0.2" d="M168.84 439.46C168.822 439.307 168.778 439.158 168.71 439.02C168.681 438.958 168.648 438.898 168.61 438.84C168.546 438.743 168.469 438.655 168.38 438.58C168.308 438.518 168.227 438.468 168.14 438.43C168.079 438.397 168.01 438.379 167.94 438.379C167.87 438.379 167.801 438.397 167.74 438.43C167.28 438.63 166.53 439.43 167.37 441.29C167.536 441.636 167.727 441.97 167.94 442.29C168.153 441.97 168.344 441.636 168.51 441.29C168.746 440.821 168.876 440.305 168.89 439.78C168.895 439.687 168.895 439.593 168.89 439.5L168.84 439.46Z" fill="#1F1F1F"/>
<path opacity="0.2" d="M191.92 426.35C191.51 426.35 190.01 427.35 191.92 430.26C193.83 427.37 192.33 426.35 191.92 426.35Z" fill="#1F1F1F"/>
<path opacity="0.2" d="M239.92 426.35C239.51 426.35 238.01 427.35 239.92 430.26C241.83 427.37 240.33 426.35 239.92 426.35Z" fill="#1F1F1F"/>
<path opacity="0.2" d="M168.84 391.46C168.822 391.307 168.778 391.158 168.71 391.02C168.681 390.958 168.648 390.898 168.61 390.84C168.546 390.743 168.469 390.655 168.38 390.58C168.308 390.518 168.227 390.468 168.14 390.43C168.079 390.397 168.01 390.379 167.94 390.379C167.87 390.379 167.801 390.397 167.74 390.43C167.28 390.63 166.53 391.43 167.37 393.29C167.536 393.636 167.727 393.97 167.94 394.29C168.153 393.97 168.344 393.636 168.51 393.29C168.746 392.821 168.876 392.305 168.89 391.78C168.895 391.687 168.895 391.593 168.89 391.5L168.84 391.46Z" fill="#1F1F1F"/>
<path opacity="0.2" d="M215.92 390.35C215.51 390.35 214.01 391.35 215.92 394.26C217.83 391.37 216.33 390.35 215.92 390.35Z" fill="#1F1F1F"/>
<path opacity="0.2" d="M191.92 402.35C191.51 402.35 190.01 403.35 191.92 406.26C193.83 403.37 192.33 402.35 191.92 402.35Z" fill="#1F1F1F"/>
<path opacity="0.2" d="M239.92 402.35C239.51 402.35 238.01 403.35 239.92 406.26C241.83 403.37 240.33 402.35 239.92 402.35Z" fill="#1F1F1F"/>
<path opacity="0.2" d="M191.92 378.35C191.51 378.35 190.01 379.35 191.92 382.26C193.83 379.37 192.33 378.35 191.92 378.35Z" fill="#1F1F1F"/>
<path opacity="0.2" d="M239.92 378.35C239.51 378.35 238.01 379.35 239.92 382.26C241.83 379.37 240.33 378.35 239.92 378.35Z" fill="#1F1F1F"/>
<path opacity="0.2" d="M169 418.86C172.46 419.05 172.58 417.24 172.38 416.86C172.18 416.48 170.49 415.75 169 418.86Z" fill="#1F1F1F"/>
<path opacity="0.2" d="M217 418.86C220.45 419.05 220.58 417.24 220.38 416.86C220.18 416.48 218.49 415.75 217 418.86Z" fill="#1F1F1F"/>
<path opacity="0.2" d="M219.58 440.53H219.37C219.112 440.549 218.862 440.628 218.64 440.76L218.38 440.94C217.935 441.304 217.562 441.749 217.28 442.25C217.161 442.443 217.054 442.644 216.96 442.85C217.954 443.001 218.97 442.788 219.82 442.25C220.041 442.107 220.211 441.896 220.304 441.65C220.398 441.404 220.41 441.134 220.34 440.88C220.246 440.77 220.13 440.682 219.998 440.622C219.867 440.561 219.724 440.53 219.58 440.53Z" fill="#1F1F1F"/>
<path opacity="0.2" d="M171.58 440.53H171.37C171.112 440.549 170.862 440.628 170.64 440.76L170.38 440.94C169.935 441.304 169.562 441.749 169.28 442.25C169.161 442.443 169.054 442.644 168.96 442.85C169.954 443.001 170.97 442.788 171.82 442.25C172.041 442.107 172.211 441.896 172.304 441.65C172.398 441.404 172.41 441.134 172.34 440.88C172.246 440.77 172.13 440.682 171.998 440.622C171.867 440.561 171.724 440.53 171.58 440.53Z" fill="#1F1F1F"/>
<path opacity="0.2" d="M193 430.86C196.46 431.05 196.58 429.24 196.38 428.86C196.18 428.48 194.49 427.75 193 430.86Z" fill="#1F1F1F"/>
<path opacity="0.2" d="M241 430.86C244.45 431.05 244.58 429.24 244.38 428.86C244.18 428.48 242.49 427.75 241 430.86Z" fill="#1F1F1F"/>
<path opacity="0.2" d="M169 394.86C172.46 395.05 172.58 393.24 172.38 392.86C172.18 392.48 170.49 391.75 169 394.86Z" fill="#1F1F1F"/>
<path opacity="0.2" d="M217 394.86C220.45 395.05 220.58 393.24 220.38 392.86C220.18 392.48 218.49 391.75 217 394.86Z" fill="#1F1F1F"/>
<path opacity="0.2" d="M193 406.86C196.46 407.05 196.58 405.24 196.38 404.86C196.18 404.48 194.49 403.75 193 406.86Z" fill="#1F1F1F"/>
<path opacity="0.2" d="M241 406.86C244.45 407.05 244.58 405.24 244.38 404.86C244.18 404.48 242.49 403.75 241 406.86Z" fill="#1F1F1F"/>
<path opacity="0.2" d="M193 382.86C196.46 383.05 196.58 381.24 196.38 380.86C196.18 380.48 194.49 379.75 193 382.86Z" fill="#1F1F1F"/>
<path opacity="0.2" d="M241 382.86C244.45 383.05 244.58 381.24 244.38 380.86C244.18 380.48 242.49 379.75 241 382.86Z" fill="#1F1F1F"/>
<path opacity="0.2" d="M211.5 416.89C211.3 417.24 211.43 419.05 214.88 418.89C213.35 415.75 211.71 416.53 211.5 416.89Z" fill="#1F1F1F"/>
<path opacity="0.2" d="M213.46 441L213.2 440.82C212.979 440.686 212.728 440.607 212.47 440.59H212.26C212.115 440.591 211.972 440.624 211.84 440.686C211.709 440.748 211.593 440.839 211.5 440.95C211.43 441.204 211.442 441.474 211.536 441.72C211.629 441.966 211.799 442.177 212.02 442.32C212.871 442.856 213.886 443.069 214.88 442.92C214.786 442.714 214.679 442.513 214.56 442.32C214.282 441.813 213.909 441.365 213.46 441Z" fill="#1F1F1F"/>
<path opacity="0.2" d="M187.5 428.89C187.3 429.24 187.43 431.05 190.88 430.89C189.35 427.75 187.71 428.53 187.5 428.89Z" fill="#1F1F1F"/>
<path opacity="0.2" d="M259.5 416.89C259.29 417.24 259.43 419.05 262.88 418.89C261.35 415.75 259.71 416.53 259.5 416.89Z" fill="#1F1F1F"/>
<path opacity="0.2" d="M262.56 442.26C262.278 441.759 261.905 441.314 261.46 440.95L261.2 440.77C260.978 440.638 260.728 440.559 260.47 440.54H260.26C260.115 440.541 259.972 440.574 259.84 440.636C259.709 440.698 259.593 440.788 259.5 440.9C259.43 441.154 259.442 441.424 259.536 441.67C259.629 441.916 259.799 442.127 260.02 442.27C260.87 442.808 261.886 443.021 262.88 442.87C262.786 442.664 262.679 442.463 262.56 442.27V442.26Z" fill="#1F1F1F"/>
<path opacity="0.2" d="M235.5 428.89C235.29 429.24 235.43 431.05 238.88 430.89C237.35 427.75 235.71 428.53 235.5 428.89Z" fill="#1F1F1F"/>
<path opacity="0.2" d="M211.5 392.89C211.3 393.24 211.43 395.05 214.88 394.89C213.35 391.75 211.71 392.53 211.5 392.89Z" fill="#1F1F1F"/>
<path opacity="0.2" d="M187.5 404.89C187.3 405.24 187.43 407.05 190.88 406.89C189.35 403.75 187.71 404.53 187.5 404.89Z" fill="#1F1F1F"/>
<path opacity="0.2" d="M259.5 392.89C259.29 393.24 259.43 395.05 262.88 394.89C261.35 391.75 259.71 392.53 259.5 392.89Z" fill="#1F1F1F"/>
<path opacity="0.2" d="M235.5 404.89C235.29 405.24 235.43 407.05 238.88 406.89C237.35 403.75 235.71 404.53 235.5 404.89Z" fill="#1F1F1F"/>
<path opacity="0.2" d="M187.5 380.89C187.3 381.24 187.43 383.05 190.88 382.89C189.35 379.75 187.71 380.53 187.5 380.89Z" fill="#1F1F1F"/>
<path opacity="0.2" d="M235.5 380.89C235.29 381.24 235.43 383.05 238.88 382.89C237.35 379.75 235.71 380.53 235.5 380.89Z" fill="#1F1F1F"/>
<path opacity="0.2" d="M214.56 370.26C214.402 369.989 214.221 369.731 214.02 369.49C213.854 369.29 213.666 369.109 213.46 368.95C213.124 368.67 212.697 368.521 212.26 368.53C212.115 368.531 211.972 368.564 211.84 368.626C211.709 368.688 211.593 368.778 211.5 368.89C211.451 369.025 211.432 369.169 211.444 369.313C211.457 369.456 211.499 369.595 211.57 369.72C211.636 369.851 211.72 369.972 211.82 370.08L212.02 370.26C212.871 370.796 213.886 371.009 214.88 370.86C214.79 370.66 214.69 370.48 214.6 370.32L214.56 370.26Z" fill="#1F1F1F"/>
<path opacity="0.2" d="M262.56 370.26C262.402 369.989 262.221 369.731 262.02 369.49C261.851 369.292 261.664 369.111 261.46 368.95C261.123 368.67 260.697 368.521 260.26 368.53C260.115 368.531 259.972 368.564 259.84 368.626C259.709 368.688 259.593 368.778 259.5 368.89C259.451 369.025 259.432 369.169 259.444 369.313C259.457 369.456 259.499 369.595 259.57 369.72C259.636 369.851 259.72 369.972 259.82 370.08C259.882 370.145 259.949 370.205 260.02 370.26C260.87 370.798 261.886 371.011 262.88 370.86C262.79 370.66 262.69 370.48 262.6 370.32C262.583 370.302 262.57 370.282 262.56 370.26Z" fill="#1F1F1F"/>
<path opacity="0.2" d="M191.92 450.35C191.51 450.35 190.01 451.35 191.92 454.26C193.83 451.37 192.33 450.35 191.92 450.35Z" fill="#1F1F1F"/>
<path opacity="0.2" d="M239.92 450.35C239.51 450.35 238.01 451.35 239.92 454.26C241.83 451.37 240.33 450.35 239.92 450.35Z" fill="#1F1F1F"/>
<path opacity="0.2" d="M193 454.86C196.46 455.05 196.58 453.24 196.38 452.86C196.18 452.48 194.49 451.75 193 454.86Z" fill="#1F1F1F"/>
<path opacity="0.2" d="M241 454.86C244.45 455.05 244.58 453.24 244.38 452.86C244.18 452.48 242.49 451.75 241 454.86Z" fill="#1F1F1F"/>
<path opacity="0.2" d="M187.5 452.89C187.3 453.24 187.43 455.05 190.88 454.89C189.35 451.75 187.71 452.53 187.5 452.89Z" fill="#1F1F1F"/>
<path opacity="0.2" d="M235.5 452.89C235.29 453.24 235.43 455.05 238.88 454.89C237.35 451.75 235.71 452.53 235.5 452.89Z" fill="#1F1F1F"/>
<path opacity="0.2" d="M119.92 294.35C119.51 294.35 118.01 295.35 119.92 298.26C121.83 295.37 120.33 294.35 119.92 294.35Z" fill="#1F1F1F"/>
<path opacity="0.2" d="M143.92 282.35C143.51 282.35 142.01 283.35 143.92 286.26C145.83 283.37 144.33 282.35 143.92 282.35Z" fill="#1F1F1F"/>
<path opacity="0.2" d="M144.8 259.27L142.97 259.74C143.031 260.655 143.362 261.532 143.92 262.26C144.85 260.86 145 259.89 144.8 259.27Z" fill="#1F1F1F"/>
<path opacity="0.2" d="M121 274.86C124.45 275.05 124.58 273.24 124.38 272.86C124.18 272.48 122.49 271.75 121 274.86Z" fill="#1F1F1F"/>
<path opacity="0.2" d="M145 286.86C148.45 287.05 148.58 285.24 148.38 284.86C148.18 284.48 146.49 283.75 145 286.86Z" fill="#1F1F1F"/>
<path opacity="0.2" d="M145 262.86C148.45 263.05 148.58 261.24 148.38 260.86C148.18 260.48 146.49 259.75 145 262.86Z" fill="#1F1F1F"/>
<path opacity="0.2" d="M115.5 296.89C115.43 297.144 115.442 297.414 115.536 297.66C115.629 297.906 115.799 298.117 116.02 298.26C116.871 298.796 117.886 299.009 118.88 298.86C118.786 298.654 118.679 298.453 118.56 298.26C117.13 295.86 115.7 296.55 115.5 296.89Z" fill="#1F1F1F"/>
<path opacity="0.2" d="M163.5 272.89C163.29 273.24 163.43 275.05 166.88 274.89C165.35 271.75 163.71 272.53 163.5 272.89Z" fill="#1F1F1F"/>
<path opacity="0.2" d="M166.56 298.26C165.13 295.86 163.7 296.55 163.5 296.89C163.43 297.144 163.442 297.414 163.536 297.66C163.629 297.906 163.799 298.117 164.02 298.26C164.87 298.798 165.886 299.011 166.88 298.86C166.786 298.654 166.679 298.453 166.56 298.26Z" fill="#1F1F1F"/>
<path opacity="0.2" d="M139.5 284.89C139.29 285.24 139.43 287.05 142.88 286.89C141.35 283.75 139.71 284.53 139.5 284.89Z" fill="#1F1F1F"/>
<path opacity="0.2" d="M140.23 260.54L139.71 260.7C139.627 260.747 139.555 260.812 139.5 260.89C139.29 261.24 139.43 263.05 142.88 262.89C141.91 260.88 140.9 260.48 140.23 260.54Z" fill="#1F1F1F"/>
<path opacity="0.2" d="M71.92 342.35C71.51 342.35 70.01 343.35 71.92 346.26C73.83 343.37 72.33 342.35 71.92 342.35Z" fill="#1F1F1F"/>
<path opacity="0.2" d="M95.92 354.35C95.51 354.35 94.01 355.35 95.92 358.26C97.83 355.37 96.33 354.35 95.92 354.35Z" fill="#1F1F1F"/>
<path opacity="0.2" d="M119.92 318.35C119.51 318.35 118.01 319.35 119.92 322.26C121.83 319.37 120.33 318.35 119.92 318.35Z" fill="#1F1F1F"/>
<path opacity="0.2" d="M95.92 330.35C95.51 330.35 94.01 331.35 95.92 334.26C97.83 331.37 96.33 330.35 95.92 330.35Z" fill="#1F1F1F"/>
<path opacity="0.2" d="M143.92 330.35C143.51 330.35 142.01 331.35 143.92 334.26C145.83 331.37 144.33 330.35 143.92 330.35Z" fill="#1F1F1F"/>
<path opacity="0.2" d="M95.92 306.35C95.51 306.35 94.01 307.35 95.92 310.26C97.83 307.37 96.33 306.35 95.92 306.35Z" fill="#1F1F1F"/>
<path opacity="0.2" d="M143.92 306.35C143.51 306.35 142.01 307.35 143.92 310.26C145.83 307.37 144.33 306.35 143.92 306.35Z" fill="#1F1F1F"/>
<path opacity="0.2" d="M73 346.86C76.46 347.05 76.59 345.24 76.38 344.86C76.17 344.48 74.49 343.75 73 346.86Z" fill="#1F1F1F"/>
<path opacity="0.2" d="M97.55 357.84C98.44 357.51 99.31 357.14 100.17 356.72C99.75 356.44 98.67 356.25 97.55 357.84Z" fill="#1F1F1F"/>
<path opacity="0.2" d="M76.34 320.89C76.2221 320.74 76.0563 320.634 75.87 320.59C75.25 321.38 74.66 322.13 74.15 322.84C76.44 322.6 76.52 321.2 76.34 320.89Z" fill="#1F1F1F"/>
<path opacity="0.2" d="M121 322.86C124.45 323.05 124.58 321.24 124.38 320.86C124.18 320.48 122.49 319.75 121 322.86Z" fill="#1F1F1F"/>
<path opacity="0.2" d="M97 334.86C100.46 335.05 100.58 333.24 100.38 332.86C100.18 332.48 98.49 331.75 97 334.86Z" fill="#1F1F1F"/>
<path opacity="0.2" d="M145 334.86C148.45 335.05 148.58 333.24 148.38 332.86C148.18 332.48 146.49 331.75 145 334.86Z" fill="#1F1F1F"/>
<path opacity="0.2" d="M97 310.86C100.46 311.05 100.58 309.24 100.38 308.86C100.18 308.48 98.49 307.75 97 310.86Z" fill="#1F1F1F"/>
<path opacity="0.2" d="M145 310.86C148.45 311.05 148.58 309.24 148.38 308.86C148.18 308.48 146.49 307.75 145 310.86Z" fill="#1F1F1F"/>
<path opacity="0.2" d="M91.5 356.89C91.31 357.21 91.41 358.73 94.04 358.89L94.79 358.72C93.29 355.79 91.71 356.54 91.5 356.89Z" fill="#1F1F1F"/>
<path opacity="0.2" d="M163.5 344.89C163.29 345.24 163.43 347.05 166.88 346.89C165.35 343.75 163.71 344.53 163.5 344.89Z" fill="#1F1F1F"/>
<path opacity="0.2" d="M115.5 320.89C115.3 321.24 115.43 323.05 118.88 322.89C117.35 319.75 115.71 320.53 115.5 320.89Z" fill="#1F1F1F"/>
<path opacity="0.2" d="M91.5 332.89C91.3 333.24 91.43 335.05 94.88 334.89C93.35 331.75 91.71 332.53 91.5 332.89Z" fill="#1F1F1F"/>
<path opacity="0.2" d="M163.5 320.89C163.29 321.24 163.43 323.05 166.88 322.89C165.35 319.75 163.71 320.53 163.5 320.89Z" fill="#1F1F1F"/>
<path opacity="0.2" d="M91.5 308.89C91.3 309.24 91.43 311.05 94.88 310.89C93.35 307.75 91.71 308.53 91.5 308.89Z" fill="#1F1F1F"/>
<path opacity="0.2" d="M139.5 308.89C139.29 309.24 139.43 311.05 142.88 310.89C141.35 307.75 139.71 308.53 139.5 308.89Z" fill="#1F1F1F"/>
<path opacity="0.2" d="M123.82 298.26C124.041 298.117 124.211 297.906 124.304 297.66C124.398 297.414 124.41 297.144 124.34 296.89C124.14 296.55 122.71 295.89 121.28 298.26C121.161 298.453 121.054 298.654 120.96 298.86C121.954 299.011 122.97 298.798 123.82 298.26Z" fill="#1F1F1F"/>
<path opacity="0.2" d="M143.92 426.35C143.51 426.35 142.01 427.35 143.92 430.26C145.83 427.37 144.33 426.35 143.92 426.35Z" fill="#1F1F1F"/>
<path opacity="0.2" d="M144.69 404.74L143.85 406.15L143.92 406.26C144.243 405.79 144.502 405.279 144.69 404.74Z" fill="#1F1F1F"/>
<path opacity="0.2" d="M145 430.86C148.45 431.05 148.58 429.24 148.38 428.86C148.18 428.48 146.49 427.75 145 430.86Z" fill="#1F1F1F"/>
<path opacity="0.2" d="M145 406.86C148.45 407.05 148.58 405.24 148.38 404.86C148.18 404.48 146.49 403.75 145 406.86Z" fill="#1F1F1F"/>
<path opacity="0.2" d="M163.5 416.89C163.29 417.24 163.43 419.05 166.88 418.89C165.35 415.75 163.71 416.53 163.5 416.89Z" fill="#1F1F1F"/>
<path opacity="0.2" d="M166.56 442.26C166.278 441.759 165.905 441.314 165.46 440.95L165.2 440.77C164.978 440.638 164.728 440.559 164.47 440.54H164.26C164.115 440.541 163.972 440.574 163.84 440.636C163.709 440.698 163.593 440.788 163.5 440.9C163.43 441.154 163.442 441.424 163.536 441.67C163.629 441.916 163.799 442.127 164.02 442.27C164.87 442.808 165.886 443.021 166.88 442.87C166.786 442.664 166.679 442.463 166.56 442.27V442.26Z" fill="#1F1F1F"/>
<path opacity="0.2" d="M139.5 428.89C139.29 429.24 139.43 431.05 142.88 430.89C141.35 427.75 139.71 428.53 139.5 428.89Z" fill="#1F1F1F"/>
<path opacity="0.2" d="M163.5 392.89C163.29 393.24 163.43 395.05 166.88 394.89C165.35 391.75 163.71 392.53 163.5 392.89Z" fill="#1F1F1F"/>
<path opacity="0.2" d="M166.56 370.26C166.402 369.989 166.221 369.731 166.02 369.49C165.851 369.292 165.664 369.111 165.46 368.95C165.124 368.67 164.697 368.521 164.26 368.53C164.115 368.531 163.972 368.564 163.84 368.626C163.709 368.688 163.593 368.778 163.5 368.89C163.451 369.025 163.432 369.169 163.444 369.313C163.457 369.456 163.499 369.595 163.57 369.72C163.636 369.851 163.72 369.972 163.82 370.08C163.882 370.145 163.949 370.205 164.02 370.26C164.87 370.798 165.886 371.011 166.88 370.86C166.79 370.66 166.69 370.48 166.6 370.32L166.56 370.26Z" fill="#1F1F1F"/>
<path opacity="0.2" d="M143.92 450.35C143.51 450.35 142.01 451.35 143.92 454.26C145.83 451.37 144.33 450.35 143.92 450.35Z" fill="#1F1F1F"/>
<path opacity="0.2" d="M145 454.86C148.45 455.05 148.58 453.24 148.38 452.86C148.18 452.48 146.49 451.75 145 454.86Z" fill="#1F1F1F"/>
<path opacity="0.2" d="M139.5 452.89C139.29 453.24 139.43 455.05 142.88 454.89C141.35 451.75 139.71 452.53 139.5 452.89Z" fill="#1F1F1F"/>
<path opacity="0.2" d="M69.57 345.05C69.7686 345.668 69.999 346.276 70.26 346.87H70.88C70.5763 346.178 70.1299 345.558 69.57 345.05Z" fill="#1F1F1F"/>
</g>
<path d="M303.22 455.26C303.22 455.26 305.01 430.71 294.22 406.15C283.43 381.59 281 379.82 281 372.63C281 365.44 288.22 357.05 289.42 340.88C290.62 324.71 290.02 316.88 290.02 316.88C290.02 316.88 315.77 357.6 333.74 360C351.71 362.4 362.49 345.63 355.9 322.87C349.31 300.11 320.56 281.55 309.19 266.57C297.82 251.59 272.05 251.57 258.88 251.57C245.71 251.57 239.12 246.78 236.72 237.8C234.32 228.82 234.33 210.8 234.33 210.8C234.33 210.8 218.75 220.38 192.4 209.6C192.4 209.6 194.8 242.54 191.8 247.33C188.8 252.12 184.64 257 166.67 257C148.7 257 133.73 260.6 125.35 269C116.97 277.4 82.23 310.92 73.25 324.1C64.27 337.28 69.05 351.65 79.83 357.04C90.61 362.43 101.39 357.63 109.18 350.45C116.97 343.27 141.52 320.5 141.52 320.5C141.52 320.5 141.52 334.28 148.11 354.04C154.7 373.8 160.11 371.41 155.29 385.78C150.47 400.15 140.92 404.35 137.93 422.91C136.139 433.594 135.336 444.419 135.53 455.25" stroke="#1F1F1F" stroke-linecap="round" stroke-linejoin="round"/>
<path d="M141.52 320.51C142.011 314.033 143.339 307.646 145.47 301.51L141.52 320.51Z" fill="white"/>
<path d="M141.52 320.51C142.011 314.033 143.339 307.646 145.47 301.51" stroke="#1F1F1F" stroke-linecap="round" stroke-linejoin="round"/>
<path d="M290 316.92C288.681 311.95 286.848 307.13 284.53 302.54" stroke="#1F1F1F" stroke-linecap="round" stroke-linejoin="round"/>
<path d="M202.03 383.3L239.75 371.21" stroke="#1F1F1F" stroke-linecap="round" stroke-linejoin="round"/>
<path d="M219.11 373.34C227.922 369.794 237.117 367.287 246.51 365.87" stroke="#1F1F1F" stroke-linecap="round" stroke-linejoin="round"/>
<path d="M208.59 297.16C238.47 302.92 250 274.28 254.01 251.39C244.06 250.29 238.82 245.66 236.74 237.87C234.35 228.87 234.35 210.87 234.35 210.87C234.35 210.87 218.77 220.45 192.42 209.67C192.42 209.67 194.82 242.61 191.82 247.4C189.74 250.74 187.06 254.08 179.56 255.79C179.29 266.07 181.36 291.9 208.59 297.16Z" fill="white"/>
<path opacity="0.2" d="M236.09 234.91C234.35 225.45 234.35 210.91 234.35 210.91C234.35 210.91 218.77 220.49 192.42 209.71C192.42 209.71 193.42 223.48 193.32 234.51C216 242.39 229.12 239.05 236.09 234.91Z" fill="#1F1F1F"/>
<path d="M208.59 297.16C238.47 302.92 250 274.28 254.01 251.39C244.06 250.29 238.82 245.66 236.74 237.87C234.35 228.87 234.35 210.87 234.35 210.87C234.35 210.87 218.77 220.45 192.42 209.67C192.42 209.67 194.82 242.61 191.82 247.4C189.74 250.74 187.06 254.08 179.56 255.79C179.29 266.07 181.36 291.9 208.59 297.16Z" stroke="#1F1F1F" stroke-linecap="round" stroke-linejoin="round"/>
<path d="M253.77 199.43C257.868 199.43 261.19 196.108 261.19 192.01C261.19 187.912 257.868 184.59 253.77 184.59C249.672 184.59 246.35 187.912 246.35 192.01C246.35 196.108 249.672 199.43 253.77 199.43Z" fill="url(#paint3_linear_14_2241)" stroke="#1F1F1F" stroke-linecap="round" stroke-linejoin="round"/>
<path d="M174.51 199.43C178.608 199.43 181.93 196.108 181.93 192.01C181.93 187.912 178.608 184.59 174.51 184.59C170.412 184.59 167.09 187.912 167.09 192.01C167.09 196.108 170.412 199.43 174.51 199.43Z" fill="url(#paint4_linear_14_2241)" stroke="#1F1F1F" stroke-linecap="round" stroke-linejoin="round"/>
<path d="M253.09 166.72C253.09 166.72 256.8 155.25 261.19 159.3C265.58 163.35 259.84 178.86 256.8 182.57C253.76 186.28 250.73 186.28 251.07 181.22C251.41 176.16 253.09 166.72 253.09 166.72Z" fill="white" stroke="#1F1F1F" stroke-linecap="round" stroke-linejoin="round"/>
<path d="M176.39 178.26C176.39 178.26 177.39 205.05 197.11 218.19C216.83 231.33 231.48 223.75 239.57 212.63C247.66 201.51 252.72 190.39 252.72 174.22C252.72 158.05 254.72 150.96 249.18 140.85C243.64 130.74 224.41 125.69 224.41 125.69C216.421 135.66 207.811 145.116 198.63 154C183.46 168.65 176.39 178.26 176.39 178.26Z" fill="white"/>
<path opacity="0.2" d="M224.41 125.69C216.421 135.66 207.811 145.116 198.63 154C183.46 168.65 176.39 178.26 176.39 178.26C176.756 183.48 177.788 188.632 179.46 193.59C206.1 173.21 220.65 136.59 224.52 125.72L224.41 125.69Z" fill="#1F1F1F"/>
<path d="M176.39 178.26C176.39 178.26 177.39 205.05 197.11 218.19C216.83 231.33 231.48 223.75 239.57 212.63C247.66 201.51 252.72 190.39 252.72 174.22C252.72 158.05 254.72 150.96 249.18 140.85C243.64 130.74 224.41 125.69 224.41 125.69C216.421 135.66 207.811 145.116 198.63 154C183.46 168.65 176.39 178.26 176.39 178.26Z" stroke="#1F1F1F" stroke-linecap="round" stroke-linejoin="round"/>
<path d="M195.04 175.11L206.39 176.17" stroke="#1F1F1F" stroke-linecap="round" stroke-linejoin="round"/>
<path d="M229.44 174.75C229.44 174.75 236.89 173.33 240.44 174.75" stroke="#1F1F1F" stroke-linecap="round" stroke-linejoin="round"/>
<path d="M204.86 169.92C204.86 172.62 203.65 174.81 202.16 174.81C200.67 174.81 199.47 172.62 199.47 169.92C199.47 167.22 200.67 165.03 202.16 165.03C203.65 165.03 204.86 167.22 204.86 169.92Z" fill="#1F1F1F"/>
<path d="M210.93 187C212.741 188.136 214.872 188.653 217.002 188.473C219.132 188.292 221.146 187.424 222.74 186" stroke="#1F1F1F" stroke-linecap="round" stroke-linejoin="round"/>
<path d="M214 198.42C214 198.42 224.45 202.81 230.52 188.64" stroke="#1F1F1F" stroke-linecap="round" stroke-linejoin="round"/>
<path d="M227.46 170.09C227.46 170.09 233.87 165.7 240.28 168.4" stroke="#1F1F1F" stroke-width="2" stroke-linecap="round" stroke-linejoin="round"/>
<path d="M225.44 159C225.44 159 232.52 151.92 242.3 157.65" stroke="#1F1F1F" stroke-width="2" stroke-linecap="round" stroke-linejoin="round"/>
<path d="M210.26 154.57C210.26 154.57 204.19 148.5 195.75 154.24" stroke="#1F1F1F" stroke-width="2" stroke-linecap="round" stroke-linejoin="round"/>
<path d="M73.25 324.11C73.25 324.11 62.47 336.11 62.47 348.66C62.47 361.21 69.65 372.66 89.47 390.58C109.29 408.5 127.79 421.72 135.58 425.92C143.37 430.12 151.15 424.72 151.15 424.72C151.15 424.72 164.03 437.59 165.52 434.6C167.01 431.61 161.03 427.11 159.83 425.32C158.777 423.898 157.573 422.594 156.24 421.43C156.24 421.43 162.53 422.32 164.93 424.43C167.33 426.54 171.21 430.12 173.01 429.82C174.81 429.52 174.81 428.02 172.11 424.43C169.933 421.618 167.304 419.189 164.33 417.24C162.53 416.05 156.54 412.75 156.54 412.75C156.54 412.75 165.22 412.15 168.22 413.95C171.22 415.75 179.3 421.14 179.9 418.74C180.5 416.34 180.5 414.85 177.5 412.15C174.5 409.45 168.5 406.15 164.93 405.56C162.469 405.107 160.06 404.407 157.74 403.47C157.74 403.47 164.63 401.07 167.02 401.07C169.41 401.07 179.02 405.86 181.69 405.27C184.36 404.68 182.89 402.27 180.8 400.77C178.71 399.27 169.42 395.68 165.52 395.38C161.62 395.08 139.77 402.57 137.08 402.57C134.39 402.57 127.5 392.99 120.31 380.11C113.12 367.23 110.43 347.17 95.16 340.29" fill="url(#paint5_linear_14_2241)"/>
<g opacity="0.2">
<path opacity="0.2" d="M71.92 346.26C73.83 343.37 72.33 342.35 71.92 342.35C72.33 342.35 73.83 343.37 71.92 346.26Z" fill="#1F1F1F"/>
<path opacity="0.2" d="M71.92 366.35C72.33 366.35 73.83 367.35 71.92 370.26C73.83 367.37 72.33 366.35 71.92 366.35Z" fill="#1F1F1F"/>
<path opacity="0.2" d="M95.92 354.35C95.51 354.35 94.01 355.35 95.92 358.26C97.83 355.37 96.33 354.35 95.92 354.35Z" fill="#1F1F1F"/>
<path opacity="0.2" d="M76.34 344.89C76.13 344.53 74.49 343.75 72.96 346.89C76.42 347.05 76.55 345.24 76.34 344.89Z" fill="#1F1F1F"/>
<path opacity="0.2" d="M76 370.08C76.0998 369.972 76.184 369.851 76.25 369.72C76.3475 369.605 76.407 369.463 76.4204 369.313C76.4338 369.163 76.4005 369.012 76.3249 368.882C76.2493 368.751 76.1351 368.647 75.9982 368.585C75.8612 368.522 75.7082 368.503 75.56 368.53C75.1225 368.521 74.6965 368.67 74.36 368.95C74.1562 369.111 73.9687 369.292 73.8 369.49C73.5991 369.731 73.4185 369.989 73.26 370.26H75.8C75.871 370.205 75.9379 370.145 76 370.08Z" fill="#1F1F1F"/>
<path opacity="0.2" d="M100.34 356.89C100.13 356.53 98.49 355.75 96.96 358.89C100.42 359.05 100.54 357.24 100.34 356.89Z" fill="#1F1F1F"/>
<path opacity="0.2" d="M94.88 358.86C93.35 355.75 91.71 356.53 91.5 356.86C91.29 357.19 91.43 359.05 94.88 358.86Z" fill="#1F1F1F"/>
<path opacity="0.2" d="M71.92 342.35V346.26C73.83 343.37 72.33 342.35 71.92 342.35Z" fill="#1F1F1F"/>
<path opacity="0.2" d="M71.92 366.35V370.26C73.83 367.37 72.33 366.35 71.92 366.35Z" fill="#1F1F1F"/>
<path opacity="0.2" d="M119.92 414.35C119.743 414.387 119.577 414.467 119.439 414.584C119.301 414.701 119.195 414.851 119.13 415.02L120.82 416.26C121.07 414.88 120.22 414.35 119.92 414.35Z" fill="#1F1F1F"/>
<path opacity="0.2" d="M143.92 426.35C143.668 426.412 143.442 426.553 143.277 426.753C143.111 426.953 143.014 427.201 143 427.46C143.601 427.413 144.198 427.333 144.79 427.22C144.742 427.008 144.635 426.813 144.481 426.659C144.327 426.505 144.133 426.398 143.92 426.35Z" fill="#1F1F1F"/>
<path opacity="0.2" d="M119.92 390.35C119.51 390.35 118.01 391.35 119.92 394.26C121.83 391.37 120.33 390.35 119.92 390.35Z" fill="#1F1F1F"/>
<path opacity="0.2" d="M143.92 406.26C145.83 403.37 144.33 402.35 143.92 402.35C143.51 402.35 142 403.37 143.92 406.26Z" fill="#1F1F1F"/>
<path opacity="0.2" d="M95.92 382.26C97.83 379.37 96.33 378.35 95.92 378.35C95.51 378.35 94 379.37 95.92 382.26Z" fill="#1F1F1F"/>
<path opacity="0.2" d="M124.34 416.89C124.18 416.62 123.22 416.11 122.11 417.18C122.65 417.58 123.19 417.96 123.72 418.33C123.971 418.195 124.169 417.98 124.281 417.718C124.394 417.457 124.415 417.165 124.34 416.89Z" fill="#1F1F1F"/>
<path opacity="0.2" d="M121 394.86C124.45 395.05 124.58 393.24 124.38 392.86C124.18 392.48 122.49 391.75 121 394.86Z" fill="#1F1F1F"/>
<path opacity="0.2" d="M145 406.86C148.45 407.05 148.58 405.24 148.38 404.86C148.18 404.48 146.49 403.75 145 406.86Z" fill="#1F1F1F"/>
<path opacity="0.2" d="M97 382.86C100.46 383.05 100.58 381.24 100.38 380.86C100.18 380.48 98.49 379.75 97 382.86Z" fill="#1F1F1F"/>
<path opacity="0.2" d="M166.53 418.87C165.67 418.19 164.88 417.64 164.28 417.23L163.58 416.79L163.5 416.89C163.3 417.23 163.43 418.92 166.53 418.87Z" fill="#1F1F1F"/>
<path opacity="0.2" d="M118.88 394.86C117.35 391.75 115.71 392.53 115.5 392.86C115.29 393.19 115.43 395.05 118.88 394.86Z" fill="#1F1F1F"/>
<path opacity="0.2" d="M139.5 404.89C139.29 405.24 139.43 407.05 142.88 406.89C141.35 403.75 139.71 404.53 139.5 404.89Z" fill="#1F1F1F"/>
<path opacity="0.2" d="M91.5 380.89C91.3 381.24 91.43 383.05 94.88 382.89C93.35 379.75 91.71 380.53 91.5 380.89Z" fill="#1F1F1F"/>
<path opacity="0.2" d="M75.82 370.26H73.28C73.2829 370.28 73.2829 370.3 73.28 370.32C73.19 370.48 73.09 370.66 73 370.86C73.9814 371.001 74.9809 370.788 75.82 370.26Z" fill="#1F1F1F"/>
<path opacity="0.2" d="M71.92 342.35C71.51 342.35 70.01 343.35 71.92 346.26V342.35Z" fill="#1F1F1F"/>
<path opacity="0.2" d="M71.92 370.26V366.35C71.51 366.35 70 367.37 71.92 370.26Z" fill="#1F1F1F"/>
<path opacity="0.2" d="M70.88 346.86C69.35 343.75 67.71 344.53 67.5 344.86C67.29 345.19 67.43 347.05 70.88 346.86Z" fill="#1F1F1F"/>
<path opacity="0.2" d="M70 369.49C69.8313 369.292 69.6438 369.112 69.44 368.95L69.37 368.9C69.68 369.35 69.99 369.81 70.37 370.26H70.59C70.4156 369.987 70.2182 369.73 70 369.49Z" fill="#1F1F1F"/>
<path opacity="0.2" d="M70.6 370.32C70.5971 370.3 70.5971 370.28 70.6 370.26H70.38L70.82 370.86H70.92C70.79 370.66 70.69 370.48 70.6 370.32Z" fill="#1F1F1F"/>
</g>
<path d="M73.25 324.11C73.25 324.11 62.47 336.11 62.47 348.66C62.47 361.21 69.65 372.66 89.47 390.58C109.29 408.5 127.79 421.72 135.58 425.92C143.37 430.12 151.15 424.72 151.15 424.72C151.15 424.72 164.03 437.59 165.52 434.6C167.01 431.61 161.03 427.11 159.83 425.32C158.777 423.898 157.573 422.594 156.24 421.43C156.24 421.43 162.53 422.32 164.93 424.43C167.33 426.54 171.21 430.12 173.01 429.82C174.81 429.52 174.81 428.02 172.11 424.43C169.933 421.618 167.304 419.189 164.33 417.24C162.53 416.05 156.54 412.75 156.54 412.75C156.54 412.75 165.22 412.15 168.22 413.95C171.22 415.75 179.3 421.14 179.9 418.74C180.5 416.34 180.5 414.85 177.5 412.15C174.5 409.45 168.5 406.15 164.93 405.56C162.469 405.107 160.06 404.407 157.74 403.47C157.74 403.47 164.63 401.07 167.02 401.07C169.41 401.07 179.02 405.86 181.69 405.27C184.36 404.68 182.89 402.27 180.8 400.77C178.71 399.27 169.42 395.68 165.52 395.38C161.62 395.08 139.77 402.57 137.08 402.57C134.39 402.57 127.5 392.99 120.31 380.11C113.12 367.23 110.43 347.17 95.16 340.29" stroke="#1F1F1F" stroke-linecap="round" stroke-linejoin="round"/>
<path d="M180.75 400.76C178.65 399.27 169.37 395.67 165.47 395.37C161.57 395.07 139.72 402.56 137.03 402.56C134.34 402.56 127.45 392.98 120.26 380.1C116.26 372.95 113.66 363.58 109.51 355.49C87.51 352.49 78.08 365.35 73.72 374.6C78.5744 380.292 83.8205 385.639 89.42 390.6C109.18 408.6 127.74 421.74 135.53 425.94C143.32 430.14 151.1 424.74 151.1 424.74C151.1 424.74 163.98 437.61 165.47 434.62C166.96 431.63 160.98 427.13 159.78 425.34C158.727 423.918 157.523 422.614 156.19 421.45C156.19 421.45 162.48 422.34 164.88 424.45C167.28 426.56 171.16 430.14 172.96 429.84C174.76 429.54 174.76 428.04 172.06 424.45C169.883 421.639 167.254 419.209 164.28 417.26C162.48 416.07 156.49 412.77 156.49 412.77C156.49 412.77 165.17 412.17 168.17 413.97C171.17 415.77 179.25 421.16 179.85 418.76C180.45 416.36 180.45 414.87 177.45 412.17C174.45 409.47 168.45 406.17 164.88 405.58C162.419 405.127 160.01 404.427 157.69 403.49C157.69 403.49 164.58 401.09 166.97 401.09C169.36 401.09 178.97 405.88 181.64 405.29C184.31 404.7 182.84 402.26 180.75 400.76Z" fill="white" stroke="#1F1F1F" stroke-linecap="round" stroke-linejoin="round"/>
<path d="M310.76 335.35C308.26 329.64 310.4 317.14 312.9 299.29C315.4 281.44 317.9 263.23 317.9 253.59C317.9 243.95 319.49 230.59 316.35 226.28C313.21 221.97 301.78 210.28 300.93 204.86C300.08 199.44 307.78 191.15 307.78 191.15C307.78 191.15 310.07 186.86 312.07 189.15C314.07 191.44 313.21 194.29 312.07 198.29C310.93 202.29 309.78 205.43 309.78 205.43C309.78 205.43 319.78 208.57 322.35 206.86C324.92 205.15 324.69 195.37 324.51 190.58C324.14 181.24 320.4 185.23 317.81 189.65C316.56 191.77 309.24 190.51 313.52 185.08C317.8 179.65 321.78 174.86 325.78 179.15C329.78 183.44 332.63 191.72 332.63 191.72C332.63 191.72 335.49 178.11 338.09 170.11C340.69 162.11 345.35 158.94 347.03 159.5C348.71 160.06 348.52 162.85 346.84 166.76C345.16 170.67 341.44 181.46 340.51 185C339.58 188.54 339.4 192.63 341.26 192.26C343.12 191.89 349.63 180.53 351.5 175.69C353.37 170.85 356.15 166.39 359.31 164.34C362.47 162.29 365.08 164.9 363.78 168.25C361.198 174.308 358.266 180.212 355 185.93C352.947 189.626 351.204 193.486 349.79 197.47C352.856 194.204 356.087 191.096 359.47 188.16C363.94 184.44 368.78 183.7 370.26 185C371.74 186.3 370.45 186.49 366.73 189.47C363.01 192.45 357.45 196 353 203.24C349.554 208.549 346.861 214.311 345 220.36C343.617 224.331 341.806 228.14 339.6 231.72C339.6 231.72 343.09 260.06 349.14 275.65C355.19 291.24 365.89 314.04 362.63 330.33C359.37 346.62 353.09 354.99 344.25 357.55C341.687 358.298 338.984 358.436 336.359 357.951C333.733 357.467 331.257 356.374 329.13 354.76" fill="url(#paint6_linear_14_2241)"/>
<g opacity="0.2">
<path opacity="0.2" d="M359.92 174.35C360.1 174.389 360.268 174.473 360.407 174.594C360.547 174.714 360.654 174.868 360.72 175.04C360.657 174.866 360.55 174.711 360.41 174.59C360.27 174.47 360.101 174.387 359.92 174.35Z" fill="#1F1F1F"/>
<path opacity="0.2" d="M359.92 174.35V176.69L360.72 175.04C360.654 174.868 360.547 174.714 360.407 174.594C360.268 174.473 360.1 174.389 359.92 174.35Z" fill="#1F1F1F"/>
<path opacity="0.2" d="M359.92 322.26C361.83 319.37 360.33 318.35 359.92 318.35C360.33 318.35 361.83 319.37 359.92 322.26Z" fill="#1F1F1F"/>
<path opacity="0.2" d="M363.19 322.6C363.19 321.933 363.16 321.267 363.1 320.6C362.48 320.76 361.7 321.35 360.96 322.87C361.714 322.936 362.474 322.844 363.19 322.6Z" fill="#1F1F1F"/>
<path opacity="0.2" d="M359.92 318.35V322.26C361.83 319.37 360.33 318.35 359.92 318.35Z" fill="#1F1F1F"/>
<path opacity="0.2" d="M311.92 198.35C311.57 198.35 310.47 199.08 311.25 201.01C311.5 200.2 311.77 199.31 312.04 198.37L311.92 198.35Z" fill="#1F1F1F"/>
<path opacity="0.2" d="M335.92 214.26C337.83 211.37 336.33 210.35 335.92 210.35C335.51 210.35 334 211.37 335.92 214.26Z" fill="#1F1F1F"/>
<path opacity="0.2" d="M359.5 177.54L359.92 176.69V174.35C359.54 174.35 358.27 175.21 359.5 177.54Z" fill="#1F1F1F"/>
<path opacity="0.2" d="M335.92 186.35C335.51 186.35 334.01 187.35 335.92 190.26C337.83 187.37 336.33 186.35 335.92 186.35Z" fill="#1F1F1F"/>
<path opacity="0.2" d="M316.27 225.72C316.341 225.595 316.383 225.456 316.396 225.313C316.408 225.169 316.389 225.025 316.34 224.89C316.247 224.778 316.131 224.688 316 224.626C315.868 224.564 315.725 224.531 315.58 224.53C315.393 224.525 315.207 224.552 315.03 224.61C315.44 225.11 315.81 225.56 316.11 225.96C316.174 225.887 316.227 225.807 316.27 225.72Z" fill="#1F1F1F"/>
<path opacity="0.2" d="M340.34 212.89C340.13 212.53 338.49 211.75 336.96 214.89C340.41 215.05 340.54 213.24 340.34 212.89Z" fill="#1F1F1F"/>
<path opacity="0.2" d="M339.85 190.24C339.811 189.691 339.811 189.139 339.85 188.59C339.21 188.39 338.04 188.59 336.93 190.86C337.947 191.025 338.988 190.804 339.85 190.24Z" fill="#1F1F1F"/>
<path opacity="0.2" d="M340.37 165C340.1 165.45 339.85 165.94 339.59 166.45C339.86 166.325 340.081 166.117 340.222 165.855C340.363 165.594 340.415 165.294 340.37 165Z" fill="#1F1F1F"/>
<path opacity="0.2" d="M307.5 200.89C307.3 201.23 307.43 202.97 310.66 202.89L310.75 202.63C309.26 199.81 307.71 200.54 307.5 200.89Z" fill="#1F1F1F"/>
<path opacity="0.2" d="M331.5 212.89C331.29 213.24 331.43 215.05 334.88 214.89C333.35 211.75 331.71 212.53 331.5 212.89Z" fill="#1F1F1F"/>
<path opacity="0.2" d="M355.5 176.89C355.3 177.24 355.43 179.04 358.84 178.89C357.34 175.76 355.71 176.53 355.5 176.89Z" fill="#1F1F1F"/>
<path opacity="0.2" d="M334.88 190.86C334.536 190.056 333.975 189.363 333.26 188.86C333.1 189.61 332.96 190.24 332.86 190.72C333.52 190.884 334.204 190.932 334.88 190.86Z" fill="#1F1F1F"/>
<path opacity="0.2" d="M332.11 190.33C331.95 189.91 331.75 189.42 331.52 188.87C331.44 189.144 331.454 189.438 331.561 189.702C331.668 189.967 331.862 190.189 332.11 190.33Z" fill="#1F1F1F"/>
<path opacity="0.2" d="M335.92 286.26C337.83 283.37 336.33 282.35 335.92 282.35C335.51 282.35 334 283.37 335.92 286.26Z" fill="#1F1F1F"/>
<path opacity="0.2" d="M335.92 258.35C335.51 258.35 334.01 259.35 335.92 262.26C337.83 259.37 336.33 258.35 335.92 258.35Z" fill="#1F1F1F"/>
<path opacity="0.2" d="M335.92 234.35C335.51 234.35 334.01 235.35 335.92 238.26C337.83 235.37 336.33 234.35 335.92 234.35Z" fill="#1F1F1F"/>
<path opacity="0.2" d="M316.38 273C316.38 273.21 316.33 273.43 316.3 273.64C316.39 273.439 316.418 273.217 316.38 273Z" fill="#1F1F1F"/>
<path opacity="0.2" d="M316.34 296.89C316.14 296.55 314.71 295.89 313.28 298.26H315.82C316.041 298.117 316.211 297.906 316.304 297.66C316.398 297.414 316.41 297.144 316.34 296.89Z" fill="#1F1F1F"/>
<path opacity="0.2" d="M337 286.86C340.45 287.05 340.58 285.24 340.38 284.86C340.18 284.48 338.49 283.75 337 286.86Z" fill="#1F1F1F"/>
<path opacity="0.2" d="M340.34 260.89C340.13 260.53 338.49 259.75 336.96 262.89C340.41 263.05 340.54 261.24 340.34 260.89Z" fill="#1F1F1F"/>
<path opacity="0.2" d="M337 238.86C339.54 239 340.28 238.06 340.41 237.41L340.32 236.82C339.94 236.45 338.4 235.93 337 238.86Z" fill="#1F1F1F"/>
<path opacity="0.2" d="M357.41 296.91C356.41 296.22 355.64 296.64 355.5 296.91C355.43 297.164 355.442 297.434 355.536 297.68C355.629 297.926 355.799 298.137 356.02 298.28H357.88L357.41 296.91Z" fill="#1F1F1F"/>
<path opacity="0.2" d="M331.5 284.89C331.29 285.24 331.43 287.05 334.88 286.89C333.35 283.75 331.71 284.53 331.5 284.89Z" fill="#1F1F1F"/>
<path opacity="0.2" d="M331.5 260.89C331.29 261.24 331.43 263.05 334.88 262.89C333.35 259.75 331.71 260.53 331.5 260.89Z" fill="#1F1F1F"/>
<path opacity="0.2" d="M331.5 236.89C331.29 237.24 331.43 239.05 334.88 238.89C333.35 235.75 331.71 236.53 331.5 236.89Z" fill="#1F1F1F"/>
<path opacity="0.2" d="M335.92 354.35C335.53 354.35 334.17 355.27 335.64 357.81L336.14 357.91C337.7 355.29 336.31 354.35 335.92 354.35Z" fill="#1F1F1F"/>
<path opacity="0.2" d="M311.92 322.26C313.83 319.37 312.33 318.35 311.92 318.35C311.51 318.35 310 319.37 311.92 322.26Z" fill="#1F1F1F"/>
<path opacity="0.2" d="M359.92 318.35C359.51 318.35 358.01 319.35 359.92 322.26V318.35Z" fill="#1F1F1F"/>
<path opacity="0.2" d="M335.92 334.26C337.83 331.37 336.33 330.35 335.92 330.35C335.51 330.35 334 331.37 335.92 334.26Z" fill="#1F1F1F"/>
<path opacity="0.2" d="M335.92 306.35C335.51 306.35 334.01 307.35 335.92 310.26C337.83 307.37 336.33 306.35 335.92 306.35Z" fill="#1F1F1F"/>
<path opacity="0.2" d="M340.34 356.89C340.15 356.56 338.78 355.89 337.34 358.1C338.162 358.205 338.991 358.249 339.82 358.23C340.036 358.089 340.203 357.884 340.296 357.644C340.389 357.403 340.405 357.14 340.34 356.89Z" fill="#1F1F1F"/>
<path opacity="0.2" d="M313 322.86C316.45 323.05 316.58 321.24 316.38 320.86C316.18 320.48 314.49 319.75 313 322.86Z" fill="#1F1F1F"/>
<path opacity="0.2" d="M337 334.86C340.45 335.05 340.58 333.24 340.38 332.86C340.18 332.48 338.49 331.75 337 334.86Z" fill="#1F1F1F"/>
<path opacity="0.2" d="M340.34 308.89C340.13 308.53 338.49 307.75 336.96 310.89C340.41 311.05 340.54 309.24 340.34 308.89Z" fill="#1F1F1F"/>
<path opacity="0.2" d="M355.5 344.89C355.34 345.16 355.39 346.29 356.99 346.71C357.26 346.23 357.53 345.71 357.78 345.24C356.65 344.1 355.66 344.61 355.5 344.89Z" fill="#1F1F1F"/>
<path opacity="0.2" d="M332.07 356.56C332.641 356.83 333.225 357.07 333.82 357.28C333.617 357.018 333.348 356.813 333.041 356.687C332.734 356.56 332.399 356.517 332.07 356.56Z" fill="#1F1F1F"/>
<path opacity="0.2" d="M310.88 322.86C310.65 322.354 310.35 321.883 309.99 321.46C309.99 321.93 309.91 322.39 309.88 322.85C310.213 322.874 310.547 322.877 310.88 322.86Z" fill="#1F1F1F"/>
<path opacity="0.2" d="M358.88 322.86C357.35 319.75 355.71 320.53 355.5 320.86C355.29 321.19 355.43 323.05 358.88 322.86Z" fill="#1F1F1F"/>
<path opacity="0.2" d="M331.5 332.89C331.29 333.24 331.43 335.05 334.88 334.89C333.35 331.75 331.71 332.53 331.5 332.89Z" fill="#1F1F1F"/>
<path opacity="0.2" d="M331.5 308.89C331.29 309.24 331.43 311.05 334.88 310.89C333.35 307.75 331.71 308.53 331.5 308.89Z" fill="#1F1F1F"/>
<path opacity="0.2" d="M313.28 298.26C313.17 298.44 313.07 298.64 312.96 298.85C313.954 299.001 314.97 298.788 315.82 298.25H313.28V298.26Z" fill="#1F1F1F"/>
<path opacity="0.2" d="M357.88 298.26H356C356.611 298.67 357.335 298.879 358.07 298.86L357.88 298.26Z" fill="#1F1F1F"/>
</g>
<path d="M310.76 335.35C308.26 329.64 310.4 317.14 312.9 299.29C315.4 281.44 317.9 263.23 317.9 253.59C317.9 243.95 319.49 230.59 316.35 226.28C313.21 221.97 301.78 210.28 300.93 204.86C300.08 199.44 307.78 191.15 307.78 191.15C307.78 191.15 310.07 186.86 312.07 189.15C314.07 191.44 313.21 194.29 312.07 198.29C310.93 202.29 309.78 205.43 309.78 205.43C309.78 205.43 319.78 208.57 322.35 206.86C324.92 205.15 324.69 195.37 324.51 190.58C324.14 181.24 320.4 185.23 317.81 189.65C316.56 191.77 309.24 190.51 313.52 185.08C317.8 179.65 321.78 174.86 325.78 179.15C329.78 183.44 332.63 191.72 332.63 191.72C332.63 191.72 335.49 178.11 338.09 170.11C340.69 162.11 345.35 158.94 347.03 159.5C348.71 160.06 348.52 162.85 346.84 166.76C345.16 170.67 341.44 181.46 340.51 185C339.58 188.54 339.4 192.63 341.26 192.26C343.12 191.89 349.63 180.53 351.5 175.69C353.37 170.85 356.15 166.39 359.31 164.34C362.47 162.29 365.08 164.9 363.78 168.25C361.198 174.308 358.266 180.212 355 185.93C352.947 189.626 351.204 193.486 349.79 197.47C352.856 194.204 356.087 191.096 359.47 188.16C363.94 184.44 368.78 183.7 370.26 185C371.74 186.3 370.45 186.49 366.73 189.47C363.01 192.45 357.45 196 353 203.24C349.554 208.549 346.861 214.311 345 220.36C343.617 224.331 341.806 228.14 339.6 231.72C339.6 231.72 343.09 260.06 349.14 275.65C355.19 291.24 365.89 314.04 362.63 330.33C359.37 346.62 353.09 354.99 344.25 357.55C341.687 358.298 338.984 358.436 336.359 357.951C333.733 357.467 331.257 356.374 329.13 354.76" stroke="#1F1F1F" stroke-linecap="round" stroke-linejoin="round"/>
<path d="M353 203.24C357.47 195.98 363.06 192.44 366.78 189.47C370.5 186.5 371.78 186.3 370.31 185C368.84 183.7 363.99 184.44 359.52 188.16C356.137 191.096 352.906 194.204 349.84 197.47C351.238 193.487 352.964 189.628 355 185.93C358.256 180.211 361.177 174.307 363.75 168.25C365.05 164.9 362.45 162.25 359.28 164.34C356.11 166.43 353.33 170.85 351.47 175.69C349.61 180.53 343.09 191.89 341.23 192.26C339.37 192.63 339.55 188.53 340.48 185C341.41 181.47 345.14 170.67 346.81 166.76C348.48 162.85 348.67 160.06 347 159.5C345.33 158.94 340.67 162.1 338.06 170.11C335.45 178.12 332.6 191.72 332.6 191.72C332.6 191.72 329.75 183.43 325.75 179.15C321.75 174.87 317.75 179.65 313.49 185.08C309.23 190.51 316.49 191.77 317.78 189.65C320.37 185.23 324.11 181.24 324.48 190.58C324.66 195.37 324.89 205.14 322.32 206.86C319.75 208.58 309.75 205.43 309.75 205.43C309.75 205.43 310.89 202.29 312.04 198.29C313.19 194.29 314.04 191.43 312.04 189.15C310.04 186.87 307.75 191.15 307.75 191.15C307.75 191.15 300.04 199.43 300.9 204.86C301.76 210.29 313.18 221.99 316.32 226.28C319.46 230.57 317.87 243.95 317.87 253.59C317.87 263.23 315.37 281.44 312.87 299.29C312.87 299.53 312.8 299.75 312.77 299.98C316.72 304.13 324.77 310.08 338.38 309.62C347.5 309.31 353.96 304.72 358.33 299.67C355.43 291.04 351.79 282.67 349.09 275.67C343.04 260.08 339.55 231.74 339.55 231.74C341.756 228.16 343.567 224.351 344.95 220.38C346.825 214.321 349.534 208.552 353 203.24Z" fill="white" stroke="#1F1F1F" stroke-linecap="round" stroke-linejoin="round"/>
<path d="M325.62 230.6C325.62 230.6 323.95 223.53 326.37 219.06C327.643 216.518 329.74 214.484 332.32 213.29" stroke="#1F1F1F" stroke-linecap="round" stroke-linejoin="round"/>
<defs>
<linearGradient id="paint0_linear_14_2241" x1="105.1" y1="104.269" x2="308.579" y2="416.232" gradientUnits="userSpaceOnUse">
<stop stop-color="#FFC834"/>
<stop offset="1" stop-color="#E29534"/>
</linearGradient>
<linearGradient id="paint1_linear_14_2241" x1="371.433" y1="238.028" x2="503.677" y2="309.47" gradientUnits="userSpaceOnUse">
<stop stop-color="#FFC834"/>
<stop offset="1" stop-color="#E29534"/>
</linearGradient>
<linearGradient id="paint2_linear_14_2241" x1="120.542" y1="241.077" x2="267.464" y2="449.03" gradientUnits="userSpaceOnUse">
<stop stop-color="#FFC834"/>
<stop offset="1" stop-color="#E29534"/>
</linearGradient>
<linearGradient id="paint3_linear_14_2241" x1="249.017" y1="186.492" x2="258.277" y2="197.62" gradientUnits="userSpaceOnUse">
<stop stop-color="#FFC834"/>
<stop offset="1" stop-color="#E29534"/>
</linearGradient>
<linearGradient id="paint4_linear_14_2241" x1="169.757" y1="186.492" x2="179.017" y2="197.62" gradientUnits="userSpaceOnUse">
<stop stop-color="#FFC834"/>
<stop offset="1" stop-color="#E29534"/>
</linearGradient>
<linearGradient id="paint5_linear_14_2241" x1="84.1589" y1="338.325" x2="152.102" y2="427.138" gradientUnits="userSpaceOnUse">
<stop stop-color="#FFC834"/>
<stop offset="1" stop-color="#E29534"/>
</linearGradient>
<linearGradient id="paint6_linear_14_2241" x1="313.446" y1="184.91" x2="403.989" y2="223.224" gradientUnits="userSpaceOnUse">
<stop stop-color="#FFC834"/>
<stop offset="1" stop-color="#E29534"/>
</linearGradient>
</defs>
</svg>
